<?xml version="1.0" encoding="UTF-8"?>
<svg id="Layer_1" data-name="Layer 1" xmlns="http://www.w3.org/2000/svg" viewBox="0 0 749 484">
  <defs>
    <style>
      .cls-1 {
        fill: #ffcb03;
      }

      .cls-2 {
        fill: #ffc805;
      }

      .cls-3 {
        fill: #241f21;
      }

      .cls-4 {
        fill: #0f1721;
      }
    </style>
  </defs>
  <path class="cls-4" d="M41.82,84.32h14.05c2.44,0,4.13-.07,5.1-.25,1.74-.3,3.15-.81,4.33-1.5,1.15-.73,2.1-1.77,2.84-3.17,.73-1.33,1.12-2.93,1.12-4.73,0-2.07-.56-3.91-1.64-5.45-1.06-1.55-2.57-2.64-4.49-3.27-1.92-.6-4.67-.92-8.26-.92h-13.07v19.28Zm0-25.91h12.25c3.3,0,5.65-.22,7.1-.67,1.88-.54,3.33-1.47,4.28-2.78,.96-1.3,1.44-2.94,1.44-4.89,0-1.85-.43-3.49-1.35-4.95-.89-1.4-2.18-2.37-3.84-2.89-1.67-.52-4.54-.8-8.58-.8h-11.31v16.98Zm-7.46,32.56V34.82h21.19c4.32,0,7.76,.57,10.35,1.69,2.64,1.12,4.68,2.9,6.16,5.27,1.47,2.35,2.2,4.82,2.2,7.4,0,2.39-.67,4.65-1.96,6.79-1.31,2.09-3.29,3.82-5.96,5.13,3.44,1,6.06,2.7,7.88,5.11,1.84,2.36,2.8,5.21,2.8,8.47,0,2.62-.58,5.09-1.69,7.37-1.13,2.24-2.51,3.95-4.14,5.2-1.65,1.23-3.72,2.17-6.2,2.8-2.46,.61-5.49,.93-9.11,.93h-21.52Z"/>
  <path class="cls-4" d="M97.37,67.92h19.13l-5.89-15.61c-1.83-4.77-3.13-8.66-4-11.73-.75,3.62-1.73,7.22-3.04,10.79l-6.2,16.55Zm-16.31,23.18l21.69-56.43h8.06l23.08,56.43h-8.48l-6.6-17.09h-23.6l-6.21,17.09h-7.94Z"/>
  <polygon class="cls-4" points="139.8 91.11 139.8 34.68 147.47 34.68 177.11 79 177.11 34.68 184.27 34.68 184.27 91.11 176.59 91.11 146.97 46.73 146.97 91.11 139.8 91.11"/>
  <polygon class="cls-4" points="196.51 91.11 196.51 34.68 203.98 34.68 203.98 62.66 232.02 34.68 242.13 34.68 218.47 57.53 243.17 91.11 233.34 91.11 213.21 62.54 203.98 71.56 203.98 91.11 196.51 91.11"/>
  <path class="cls-4" d="M276.74,63.73c0,6.82,1.83,12.17,5.5,16.08,3.65,3.89,8.23,5.89,13.77,5.89s10.25-2,13.87-5.95c3.65-3.95,5.44-9.58,5.44-16.81,0-4.63-.77-8.62-2.32-12.08-1.56-3.4-3.84-6.07-6.8-7.96-3.02-1.88-6.39-2.83-10.1-2.83-5.29,0-9.82,1.82-13.63,5.47-3.82,3.61-5.74,9.71-5.74,18.18m-7.7-.12c0-9.36,2.53-16.7,7.57-22.01,5.02-5.28,11.52-7.94,19.48-7.94,5.2,0,9.91,1.25,14.1,3.73,4.19,2.5,7.38,5.96,9.56,10.44,2.21,4.45,3.3,9.49,3.3,15.14s-1.15,10.83-3.47,15.34c-2.33,4.54-5.6,7.96-9.82,10.26-4.25,2.32-8.81,3.5-13.71,3.5-5.32,0-10.05-1.28-14.25-3.86-4.18-2.53-7.35-6.07-9.52-10.49-2.15-4.42-3.24-9.15-3.24-14.11"/>
  <polygon class="cls-4" points="333.06 91.11 333.06 34.68 371.13 34.68 371.13 41.31 340.53 41.31 340.53 58.81 366.99 58.81 366.99 65.46 340.53 65.46 340.53 91.11 333.06 91.11"/>
  <path class="cls-4" d="M443.02,71.32l7.48,1.89c-1.56,6.13-4.39,10.81-8.44,14.05-4.09,3.23-9.05,4.82-14.94,4.82s-11.02-1.25-14.84-3.7c-3.81-2.47-6.73-6.09-8.7-10.78-2-4.71-2.99-9.73-2.99-15.11,0-5.9,1.13-11.02,3.36-15.4,2.28-4.37,5.45-7.71,9.61-9.97,4.13-2.28,8.72-3.43,13.67-3.43,5.66,0,10.41,1.46,14.24,4.37,3.9,2.85,6.54,6.86,8.05,12.12l-7.33,1.71c-1.32-4.12-3.24-7.1-5.7-8.96-2.5-1.88-5.65-2.83-9.41-2.83-4.34,0-7.96,1.04-10.88,3.14-2.91,2.05-4.96,4.86-6.15,8.37-1.18,3.49-1.76,7.13-1.76,10.84,0,4.79,.7,8.99,2.07,12.59,1.41,3.57,3.58,6.22,6.54,8.02,2.94,1.76,6.14,2.66,9.6,2.66,4.18,0,7.73-1.23,10.6-3.63,2.9-2.41,4.87-6.02,5.9-10.76"/>
  <polygon class="cls-4" points="459.83 91.11 459.83 34.68 500.66 34.68 500.66 41.31 467.33 41.31 467.33 58.61 498.55 58.61 498.55 65.24 467.33 65.24 467.33 84.43 501.98 84.43 501.98 91.11 459.83 91.11"/>
  <path class="cls-4" d="M528.19,91.11v-23.94l-21.75-32.49h9.09l11.14,17.02c2.06,3.17,3.96,6.34,5.73,9.54,1.71-2.97,3.75-6.28,6.16-9.96l10.93-16.6h8.73l-22.55,32.49v23.94h-7.47Z"/>
  <polygon class="cls-4" points="564.6 91.11 564.6 34.68 572.05 34.68 572.05 84.43 599.85 84.43 599.85 91.11 564.6 91.11"/>
  <path class="cls-4" d="M614.19,63.73c0,6.82,1.83,12.17,5.47,16.08,3.66,3.89,8.25,5.89,13.79,5.89s10.22-2,13.87-5.95c3.62-3.95,5.43-9.58,5.43-16.81,0-4.63-.77-8.62-2.33-12.08-1.54-3.4-3.82-6.07-6.82-7.96-2.97-1.88-6.31-2.83-10.07-2.83-5.27,0-9.82,1.82-13.64,5.47-3.81,3.61-5.7,9.71-5.7,18.18m-7.71-.12c0-9.36,2.49-16.7,7.54-22.01,5.01-5.28,11.52-7.94,19.49-7.94,5.2,0,9.89,1.25,14.09,3.73,4.16,2.5,7.36,5.96,9.56,10.44,2.2,4.45,3.29,9.49,3.29,15.14s-1.15,10.83-3.47,15.34c-2.29,4.54-5.56,7.96-9.8,10.26-4.25,2.32-8.8,3.5-13.71,3.5-5.3,0-10.07-1.28-14.24-3.86-4.19-2.53-7.36-6.07-9.5-10.49-2.15-4.42-3.24-9.15-3.24-14.11"/>
  <polygon class="cls-4" points="670 91.11 670 34.68 677.67 34.68 707.34 79 707.34 34.68 714.48 34.68 714.48 91.11 706.82 91.11 677.16 46.73 677.16 91.11 670 91.11"/>
  <path class="cls-4" d="M42.22,442.86h13.46c2.3,0,3.93-.08,4.85-.27,1.65-.27,3.01-.77,4.12-1.45,1.12-.66,2.02-1.67,2.72-2.97,.72-1.31,1.08-2.78,1.08-4.49,0-1.98-.54-3.7-1.55-5.18-1.04-1.46-2.46-2.5-4.29-3.1-1.81-.56-4.46-.88-7.92-.88h-12.47v18.34Zm0-24.65h11.67c3.18,0,5.45-.22,6.79-.61,1.84-.56,3.22-1.43,4.13-2.68,.91-1.21,1.38-2.78,1.38-4.63s-.43-3.33-1.27-4.69c-.87-1.34-2.11-2.27-3.69-2.78-1.59-.49-4.32-.74-8.22-.74h-10.79v16.12Zm-7.13,30.95v-53.36h20.24c4.13,0,7.45,.53,9.95,1.64,2.47,1.04,4.41,2.71,5.82,4.95,1.41,2.25,2.15,4.6,2.15,7.06,0,2.3-.64,4.44-1.88,6.45-1.26,1.99-3.15,3.63-5.67,4.86,3.25,.96,5.75,2.57,7.54,4.84,1.73,2.29,2.61,4.98,2.61,8.08,0,2.5-.52,4.85-1.6,6.97-1.07,2.14-2.38,3.81-3.96,4.95-1.56,1.16-3.54,2.03-5.9,2.65-2.37,.61-5.25,.9-8.69,.9h-20.59Z"/>
  <path class="cls-4" d="M106.96,429.82c-2.39,.99-6.02,1.83-10.81,2.51-2.73,.43-4.65,.84-5.79,1.32-1.13,.5-1.99,1.19-2.6,2.16-.62,.96-.94,1.98-.94,3.15,0,1.78,.67,3.22,2,4.4,1.35,1.18,3.31,1.77,5.87,1.77s4.83-.56,6.82-1.69c2-1.1,3.46-2.63,4.39-4.58,.71-1.49,1.05-3.7,1.05-6.61v-2.44Zm.56,14.83c-2.46,2.07-4.81,3.54-7.07,4.39-2.28,.87-4.73,1.31-7.31,1.31-4.31,0-7.62-1.05-9.92-3.19-2.29-2.07-3.45-4.73-3.45-8.01,0-1.92,.41-3.66,1.31-5.25,.85-1.57,2-2.84,3.43-3.81,1.41-.96,2.99-1.67,4.73-2.16,1.34-.36,3.29-.67,5.91-1.04,5.38-.6,9.29-1.35,11.82-2.23,.03-.91,.06-1.49,.06-1.74,0-2.71-.64-4.59-1.88-5.73-1.7-1.47-4.19-2.23-7.55-2.23-3.11,0-5.44,.57-6.91,1.65-1.47,1.09-2.59,3.03-3.28,5.79l-6.48-.87c.57-2.77,1.54-5.01,2.89-6.7,1.37-1.74,3.32-3.06,5.87-3.96,2.55-.93,5.49-1.39,8.85-1.39s6.07,.39,8.17,1.18c2.06,.77,3.61,1.77,4.58,2.97,.98,1.2,1.65,2.67,2.06,4.51,.22,1.12,.32,3.16,.32,6.08v8.84c0,6.15,.13,10.04,.44,11.7,.26,1.64,.84,3.17,1.68,4.69h-6.93c-.7-1.38-1.12-2.98-1.32-4.81"/>
  <path class="cls-4" d="M123.92,449.46v-39.09h5.98v5.53c2.87-4.27,7.02-6.43,12.45-6.43,2.36,0,4.51,.4,6.48,1.28,1.99,.86,3.45,1.94,4.44,3.31,.99,1.38,1.65,3.01,2.03,4.89,.27,1.22,.4,3.38,.4,6.45v24.05h-6.64v-23.78c0-2.74-.25-4.73-.77-6.05-.49-1.36-1.41-2.43-2.71-3.21-1.33-.81-2.88-1.21-4.66-1.21-2.81,0-5.22,.89-7.28,2.68-2.04,1.79-3.08,5.19-3.08,10.18v21.39h-6.64Z"/>
  <polygon class="cls-4" points="165.9 449.46 165.9 395.5 172.5 395.5 172.5 426.25 188.2 410.37 196.8 410.37 181.85 424.87 198.28 449.46 190.11 449.46 177.19 429.46 172.5 433.94 172.5 449.46 165.9 449.46"/>
  <path class="cls-4" d="M205.75,426.14h21.84c-.3-3.3-1.14-5.75-2.52-7.36-2.11-2.6-4.82-3.86-8.19-3.86-3.05,0-5.61,1-7.67,3.05-2.1,2.05-3.25,4.78-3.45,8.18m21.75,10.71l6.85,.86c-1.09,4-3.08,7.11-6.01,9.3-2.91,2.22-6.65,3.33-11.19,3.33-5.69,0-10.25-1.74-13.58-5.29-3.35-3.51-5.02-8.47-5.02-14.83s1.7-11.68,5.06-15.31c3.41-3.61,7.8-5.45,13.19-5.45s9.49,1.79,12.8,5.35c3.33,3.56,4.96,8.53,4.96,15,0,.39,0,.99-.02,1.77h-29.15c.24,4.28,1.46,7.57,3.63,9.89,2.2,2.29,4.92,3.41,8.18,3.41,2.41,0,4.5-.62,6.23-1.91,1.71-1.27,3.07-3.31,4.08-6.12"/>
  <path class="cls-4" d="M242.59,449.46v-39.09h5.96v5.9c1.54-2.76,2.95-4.6,4.22-5.47,1.29-.9,2.73-1.33,4.26-1.33,2.25,0,4.51,.72,6.8,2.16l-2.26,6.13c-1.63-.97-3.26-1.46-4.86-1.46-1.45,0-2.76,.46-3.91,1.3-1.17,.89-1.96,2.11-2.48,3.63-.72,2.37-1.09,4.95-1.09,7.73v20.49h-6.63Z"/>
  <path class="cls-4" d="M265.11,437.77l6.58-1c.37,2.59,1.36,4.63,3.05,6.01,1.68,1.4,4.04,2.1,7.05,2.1s5.3-.6,6.76-1.86c1.47-1.25,2.21-2.69,2.21-4.36,0-1.5-.64-2.69-1.94-3.54-.91-.58-3.16-1.32-6.79-2.25-4.86-1.21-8.21-2.26-10.09-3.18-1.89-.89-3.32-2.14-4.29-3.72-.94-1.59-1.45-3.31-1.45-5.25,0-1.76,.41-3.35,1.23-4.83,.77-1.49,1.86-2.73,3.23-3.7,1.04-.77,2.46-1.39,4.23-1.93,1.78-.54,3.69-.8,5.73-.8,3.07,0,5.75,.44,8.06,1.33,2.33,.87,4.03,2.07,5.13,3.59,1.1,1.5,1.88,3.52,2.29,6.05l-6.48,.89c-.3-2-1.15-3.58-2.56-4.71-1.41-1.13-3.4-1.7-5.96-1.7-3.05,0-5.23,.53-6.54,1.51-1.3,1-1.93,2.2-1.93,3.53,0,.87,.28,1.64,.8,2.33,.56,.68,1.4,1.29,2.54,1.74,.67,.27,2.64,.84,5.85,1.71,4.71,1.24,7.97,2.28,9.82,3.07,1.84,.81,3.31,1.97,4.37,3.49,1.03,1.54,1.56,3.41,1.56,5.68s-.64,4.27-1.91,6.23c-1.31,1.92-3.16,3.48-5.57,4.53-2.45,1.06-5.2,1.61-8.27,1.61-5.08,0-8.93-1.07-11.61-3.19-2.65-2.1-4.36-5.23-5.1-9.38"/>
  <path class="cls-4" d="M338.06,443.54l.97,5.85c-1.88,.39-3.56,.57-5.02,.57-2.41,0-4.26-.37-5.6-1.14-1.32-.75-2.26-1.78-2.79-2.99-.53-1.24-.81-3.84-.81-7.84v-22.48h-4.86v-5.14h4.86v-9.69l6.59-3.96v13.65h6.66v5.14h-6.66v22.85c0,1.89,.11,3.13,.35,3.65,.22,.57,.61,.98,1.14,1.29,.54,.33,1.28,.49,2.27,.49,.75,0,1.73-.1,2.9-.26"/>
  <path class="cls-4" d="M348.9,429.87c0,5.02,1.07,8.79,3.28,11.28,2.19,2.51,4.95,3.73,8.22,3.73s6.03-1.25,8.22-3.76c2.18-2.5,3.29-6.32,3.29-11.44,0-4.83-1.11-8.52-3.31-10.99-2.19-2.49-4.93-3.75-8.2-3.75s-6.03,1.24-8.22,3.75c-2.2,2.45-3.28,6.2-3.28,11.17m-6.85,0c0-7.19,2.05-12.58,6.06-16.05,3.36-2.92,7.45-4.35,12.28-4.35,5.39,0,9.79,1.76,13.18,5.3,3.42,3.5,5.13,8.37,5.13,14.56,0,5.02-.76,8.98-2.26,11.87-1.5,2.9-3.72,5.15-6.6,6.71-2.88,1.63-6.02,2.43-9.45,2.43-5.46,0-9.89-1.74-13.28-5.28-3.35-3.5-5.06-8.57-5.06-15.2"/>
  <path class="cls-4" d="M413.46,443.54l.96,5.85c-1.89,.39-3.53,.57-5.01,.57-2.41,0-4.26-.37-5.61-1.14-1.32-.75-2.23-1.78-2.78-2.99-.54-1.24-.81-3.84-.81-7.84v-22.48h-4.86v-5.14h4.86v-9.69l6.58-3.96v13.65h6.68v5.14h-6.68v22.85c0,1.89,.12,3.13,.37,3.65,.23,.57,.58,.98,1.13,1.29,.52,.33,1.3,.49,2.27,.49,.75,0,1.73-.1,2.92-.26"/>
  <path class="cls-4" d="M419.94,449.46v-53.96h6.62v19.33c3.08-3.57,7.01-5.36,11.69-5.36,2.93,0,5.42,.56,7.55,1.7,2.14,1.14,3.65,2.72,4.6,4.73,.9,2.02,1.35,4.93,1.35,8.78v24.78h-6.57v-24.78c0-3.33-.75-5.74-2.17-7.21-1.45-1.55-3.49-2.3-6.09-2.3-1.99,0-3.83,.52-5.57,1.54-1.72,1.03-2.95,2.39-3.68,4.12-.76,1.78-1.12,4.17-1.12,7.23v21.4h-6.62Z"/>
  <path class="cls-4" d="M464.06,426.14h21.84c-.3-3.3-1.12-5.75-2.51-7.36-2.13-2.6-4.86-3.86-8.23-3.86-3.02,0-5.58,1-7.66,3.05-2.07,2.05-3.22,4.78-3.44,8.18m21.73,10.71l6.89,.86c-1.08,4-3.08,7.11-6.01,9.3-2.93,2.22-6.65,3.33-11.2,3.33-5.7,0-10.21-1.74-13.58-5.29-3.35-3.51-5.02-8.47-5.02-14.83s1.68-11.68,5.06-15.31c3.39-3.61,7.78-5.45,13.2-5.45s9.48,1.79,12.81,5.35c3.31,3.56,4.96,8.53,4.96,15,0,.39-.01,.99-.06,1.77h-29.13c.22,4.28,1.44,7.57,3.64,9.89,2.16,2.29,4.91,3.41,8.16,3.41,2.45,0,4.52-.62,6.22-1.91,1.72-1.27,3.11-3.31,4.07-6.12"/>
  <polygon class="cls-4" points="514.26 449.46 514.26 395.5 521.6 395.5 549.94 437.82 549.94 395.5 556.79 395.5 556.79 449.46 549.47 449.46 521.12 407.04 521.12 449.46 514.26 449.46"/>
  <path class="cls-4" d="M590.06,429.82c-2.38,.99-5.98,1.83-10.8,2.51-2.74,.43-4.68,.84-5.8,1.32-1.12,.5-2.01,1.19-2.59,2.16-.63,.96-.92,1.98-.92,3.15,0,1.78,.65,3.22,2,4.4,1.33,1.18,3.3,1.77,5.87,1.77s4.83-.56,6.82-1.69c1.96-1.1,3.44-2.63,4.36-4.58,.72-1.49,1.06-3.7,1.06-6.61v-2.44Zm.57,14.83c-2.45,2.07-4.81,3.54-7.09,4.39-2.28,.87-4.7,1.31-7.31,1.31-4.29,0-7.59-1.05-9.89-3.19-2.33-2.07-3.48-4.73-3.48-8.01,0-1.92,.44-3.66,1.3-5.25,.91-1.57,2.03-2.84,3.46-3.81,1.39-.96,2.98-1.67,4.75-2.16,1.28-.36,3.25-.67,5.87-1.04,5.38-.6,9.32-1.35,11.82-2.23,.03-.91,.06-1.49,.06-1.74,0-2.71-.64-4.59-1.86-5.73-1.72-1.47-4.22-2.23-7.56-2.23-3.13,0-5.41,.57-6.91,1.65-1.49,1.09-2.59,3.03-3.28,5.79l-6.52-.87c.59-2.77,1.58-5.01,2.94-6.7,1.33-1.74,3.3-3.06,5.84-3.96,2.56-.93,5.51-1.39,8.86-1.39s6.05,.39,8.14,1.18c2.09,.77,3.62,1.77,4.6,2.97,.97,1.2,1.69,2.67,2.08,4.51,.22,1.12,.31,3.16,.31,6.08v8.84c0,6.15,.16,10.04,.43,11.7,.29,1.64,.84,3.17,1.69,4.69h-6.92c-.7-1.38-1.13-2.98-1.33-4.81"/>
  <path class="cls-4" d="M621.52,443.54l.96,5.85c-1.87,.39-3.54,.57-5.01,.57-2.39,0-4.27-.37-5.59-1.14-1.33-.75-2.27-1.78-2.8-2.99-.53-1.24-.81-3.84-.81-7.84v-22.48h-4.86v-5.14h4.86v-9.69l6.6-3.96v13.65h6.65v5.14h-6.65v22.85c0,1.89,.11,3.13,.34,3.65,.25,.57,.6,.98,1.14,1.29,.53,.33,1.28,.49,2.25,.49,.76,0,1.7-.1,2.92-.26"/>
  <path class="cls-4" d="M628.04,410.37h6.63v39.09h-6.63v-39.09Zm0-14.88h6.63v7.59h-6.63v-7.59Z"/>
  <path class="cls-4" d="M648.44,429.87c0,5.02,1.09,8.79,3.26,11.28,2.2,2.51,4.94,3.73,8.26,3.73s6.01-1.25,8.19-3.76c2.21-2.5,3.28-6.32,3.28-11.44,0-4.83-1.1-8.52-3.29-10.99-2.2-2.49-4.92-3.75-8.18-3.75s-6.06,1.24-8.26,3.75c-2.18,2.45-3.26,6.2-3.26,11.17m-6.82,0c0-7.19,2.02-12.58,6.04-16.05,3.35-2.92,7.46-4.35,12.3-4.35,5.37,0,9.76,1.76,13.18,5.3,3.39,3.5,5.1,8.37,5.1,14.56,0,5.02-.73,8.98-2.27,11.87-1.49,2.9-3.69,5.15-6.56,6.71-2.89,1.63-6.03,2.43-9.44,2.43-5.48,0-9.89-1.74-13.28-5.28-3.38-3.5-5.06-8.57-5.06-15.2"/>
  <path class="cls-4" d="M683.05,449.46v-39.09h5.96v5.53c2.86-4.27,7.02-6.43,12.46-6.43,2.35,0,4.51,.4,6.47,1.28,1.99,.86,3.47,1.94,4.44,3.31,.98,1.38,1.71,3.01,2.06,4.89,.25,1.22,.37,3.38,.37,6.45v24.05h-6.59v-23.78c0-2.74-.28-4.73-.8-6.05-.53-1.36-1.44-2.43-2.75-3.21-1.33-.81-2.87-1.21-4.61-1.21-2.83,0-5.27,.89-7.31,2.68-2.06,1.79-3.07,5.19-3.07,10.18v21.39h-6.63Z"/>
  <path class="cls-2" d="M164.85,313.61c-11.34,11.24-31.31,11.76-46.61,11.76h-18.3v-66.06l17.79-.11c15.81-.11,35.47-.31,46.71,10.82,5.51,5.51,8.43,13.11,8.43,22.57,0,8.64-2.71,15.71-8.01,21.01M99.95,160.07h10.3c14.46,0,44.42,0,44.42,30.17s-30.27,30.38-41.61,30.38h-13.1v-60.55Zm112.55,94.46c-12.48-10.61-27.98-13.63-28.19-13.63l-.31-10.71c19.87-4.78,22.57-32.77,22.36-48.99-2.08-40.47-26-61.17-71.05-61.17H45.12v245.39h97.68c26.42,0,87.8-6.45,87.8-65.95,0-13.53-4.79-33.5-18.1-44.95"/>
  <path class="cls-3" d="M142.8,365.42H45.12V120.02h90.19c45.04,0,68.96,20.7,71.05,61.17,.21,16.23-2.5,44.21-22.37,49l.31,10.71c.21,0,15.71,3.02,28.19,13.62,13.31,11.45,18.1,31.42,18.1,44.95,0,59.5-61.38,65.95-87.79,65.95m76.77-119.21c-6.56-5.62-13.84-9.36-19.76-11.86,11.65-9.57,17.78-27.98,17.47-53.46-2.39-47.02-30.69-71.88-81.97-71.88H34.2V376.34h108.6c61.89,0,98.82-28.71,98.82-76.87,0-15.92-5.83-39.43-22.05-53.26"/>
  <path class="cls-3" d="M110.96,270.23h6.97c13.63-.21,30.79-.31,38.8,7.59,3.43,3.43,5.1,8.22,5.1,14.77,0,5.73-1.56,9.99-4.78,13.21-8.63,8.64-28.08,8.53-40.99,8.53h-5.1v-44.1Zm53.47-.21c-11.23-11.13-30.9-10.92-46.71-10.82l-17.79,.11v66.06h18.31c15.29,0,35.26-.52,46.6-11.76,5.31-5.3,8.01-12.38,8.01-21.01,0-9.47-2.92-17.06-8.43-22.57"/>
  <path class="cls-3" d="M113.05,209.69h-2.08v-38.7c21.74,.11,32.77,3.12,32.77,19.25,0,13.94-8.64,19.45-30.69,19.45m-2.81-49.62h-10.3v60.55h13.11c11.34,0,41.61,0,41.61-30.38s-29.96-30.17-44.42-30.17"/>
  <path class="cls-3" d="M579.83,242.7c0,39.79,32.68,72.26,72.9,72.26h50.07v49.96h-50.07c-67.98,0-123.27-54.88-123.27-122.22s55.29-122.34,123.27-122.34v-.41c5.02,.41,17.28,.41,50.07,.41v49.96h-50.07c-40.22,0-72.9,32.47-72.9,72.38m72.9-61.06h61.27l.1-72.58h-5.65c-16.55,0-39.59,0-50.07,.1l-5.65-.1c-74.26,0-134.59,59.9-134.59,133.64s60.33,133.53,134.59,133.53h61.27v-72.47h-61.27c-33.94,0-61.58-27.44-61.58-61.06s27.64-61.06,61.58-61.06"/>
  <path class="cls-2" d="M579.83,242.7c0,39.8,32.68,72.27,72.9,72.27h50.07v49.96h-50.07c-67.98,0-123.27-54.88-123.27-122.22s55.29-122.33,123.27-122.33v-.42c5.02,.42,17.28,.42,50.07,.42v49.96h-50.07c-40.22,0-72.9,32.47-72.9,72.37"/>
  <path class="cls-4" d="M376.01,364.73c-67.93,0-123.17-54.71-123.17-122.02s55.24-122.02,123.17-122.02,123.17,54.71,123.17,122.02-55.24,122.02-123.17,122.02m0-255.27c-74.07,0-134.29,59.82-134.29,133.26s60.23,133.26,134.29,133.26,134.29-59.82,134.29-133.26-60.23-133.26-134.29-133.26"/>
  <path class="cls-1" d="M376.01,317.09c-41.4,0-75-33.28-75-74.37s33.6-74.48,75-74.48,75,33.39,75,74.48-33.6,74.37-75,74.37m0-196.39c-67.93,0-123.17,54.71-123.17,122.02s55.24,122.02,123.17,122.02,123.17-54.71,123.17-122.02-55.24-122.02-123.17-122.02"/>
  <path class="cls-4" d="M451.01,242.71c0,41.09-33.6,74.38-75,74.38s-75-33.29-75-74.38,33.6-74.48,75-74.48,75,33.39,75,74.48"/>
  <path class="cls-3" d="M451.01,242.71h-.27c0,20.47-8.37,39-21.89,52.4-13.53,13.41-32.21,21.7-52.84,21.7s-39.31-8.29-52.84-21.7c-13.53-13.41-21.9-31.93-21.9-52.4s8.37-39.02,21.9-52.45c13.53-13.44,32.21-21.75,52.84-21.75s39.31,8.32,52.84,21.75c13.53,13.44,21.89,31.99,21.89,52.45h.54c0-41.24-33.72-74.75-75.27-74.75s-75.27,33.51-75.28,74.75c0,20.62,8.43,39.29,22.06,52.79,13.62,13.51,32.44,21.86,53.22,21.86s39.6-8.35,53.22-21.86c13.63-13.5,22.05-32.17,22.05-52.79h-.27Z"/>
  <path class="cls-3" d="M299.79,172.79l1.69,1.4-1.01,1.25c-.73,.63-.9,1.2-1.53,2.1-1.17,1.69,1.77,3.14,4.03-.19,2.51-3.68-1.19-6.19-2.6-6.19-2.23-.06-4.38,1.14-5.97,3.02-2.97,3.57-1.87,8.6,.96,11.52,3.47,3.64,9.56,4.62,12.68,.68,5.84-7.16,1.79-9.75,.45-10.41l1.77-2.07c1.93,2.09,6.75,6,.18,14.16-4.37,5.47-11.56,5.93-16.51,1.52-5.01-4.42-5.85-11.67-1.27-17.18,3.63-4.32,8.61-5.14,12.64-2.03,2.62,2.06,3.68,5.82,.8,9.85-3.92,5.48-9.59,1.73-9.51-.1l-1.07,1.16-1.61-1.4,5.88-7.1Z"/>
  <path class="cls-3" d="M308.25,164.72c-.39,3.51,2.11,6.67,5.62,6.98,3.42,.39,6.47-2.14,6.91-5.58,.4-3.54-2.11-6.65-5.6-7.04-3.47-.33-6.55,2.16-6.94,5.64m2.07,.13c0-2.13,1.65-3.81,3.66-3.84,2.1-.02,3.85,1.65,3.85,3.71s-1.62,3.8-3.66,3.87c-2.09,0-3.8-1.7-3.85-3.74"/>
  <path class="cls-3" d="M329.06,149.19c2.12-1.69,5.48-3.08,8.22-2.23,2.68,.82,4.44,3.12,5.23,5.65,.78,2.21-.4,4.92-2.15,5.78l-.93,.18c.52-1.67,.07-4.13-1.13-5.96-1.01-1.63-2.16-2.61-3.99-3.42-1.69-.75-3.58-.69-5.25,0m-4.54,10.73c.45-1.66,1.01-4.35,1.68-5.78,.67-1.44,2.39-2.55,4.03-3.08,1.93-.66,4.27,.71,5.29,2.79,.8,1.74,.63,3.79-.82,4.57-1.8,.96-2.35,0-3.58-2.74l-1.87,.87c1.19,2.5,1.82,3.76-.1,4.68-1.17,.52-3.53-.04-3.36-1.93l-1.26,.62Zm-.95-4.24c-.22,.62-.52,1.5-.77,2.34-.17,.8-.42,1.9-.5,2.64l1.17,1.29,1.31-.66c-.21,1.15,1.26,5.44,5.27,3.89,2.1-.88,3.3-2.91,2.34-3.69,1.21,.95,2.97,1.33,4.32,.6,2.04-1.07,2.42-2.28,2.8-3.7l.76-.1,.3,1.63c.89-.12,2.55-1.05,3.39-2.32,2.2-3.29,1.57-6.08-.22-9.79-2.23-4.41-6.97-6-11.54-4.19-3.04,1.26-4.52,2.89-5.53,4.78-1.5-.95-3.24-.74-4.95,.32-1.96,1.13-2.58,3.21-2.28,5.05,.4,1.91,2.49,3.13,4.12,1.91m.47-2.06c0-.51-.45-.96-.96-1.29l-1.72,.09c-.16-1.17,1.21-2.34,1.65-2.47,.55-.25,1.7-.2,2.16,.28l-.56,1.8c-.22,.45-.34,1.05-.57,1.59"/>
  <path class="cls-3" d="M344.94,143.35c-.88-2.29,.27-5.25,3.68-5.55,3.89-.36,6.65,4.01,7.67,8,1.05,4.06,.34,9.59-3.41,10.54-.84,.21-5.26,.47-5.78-3.92l2.12-.27c.48,1.24,1.74,2.23,2.18,2.13,1.45-.42,1.77-4.13,.91-7.4-.8-3.25-2.93-6.7-4.41-6.39-.56,.1-1.21,.57-1.21,2.52l-1.76,.35Z"/>
  <path class="cls-3" d="M374.62,147.82c.41-.59,1.34-.64,1.95-.15,.62,.5,.68,1.4,.17,1.96-.49,.7-1.41,.77-2.04,.22-.58-.5-.66-1.42-.08-2.04m4.95,3.24c1.28,2.09,2.99,2.65,5.41,2.75,2.29,.04,4.43-1.12,5.8-2.75,1.79-2.32,2.71-4.95,2.78-8.29,.1-3.11-1.36-7.25-3.3-9.31-2.39-2.58-5.04-3.44-8.7-3.65-4.21-.2-8.33,1.63-9.95,5.57l2.44,.15c1.5-2.42,4.52-3.6,7.47-3.4,2.68,.07,5.25,.95,6.94,3.26,1.28,1.8,2.16,4.21,2.02,7.01-.15,4.03-2.15,7.62-5.28,7.51-1.79-.07-3.43-1.47-3.34-2.93,.12-.98,.55-1.8,1.1-2.29,1.3-.98,2.02-.9,2.07-2.64,.03-2.9-2.15-5.53-6.23-5.53-4.75,0-7.31,2.79-8.05,7.53-.76,4.54,.64,9.13,4.77,9.36,2.1,.11,3.58-.96,4.05-2.33m-6.34-3.92c-.47-1.62-.35-3.62,.53-5.24,.95-1.79,2.66-2.7,5.18-2.61,1.65,.08,3.03,1.27,3.03,2.83,.02,1.1-1.2,.89-2.11,1.58-.71,.54-.48,2.15-.63,2.83-.84-.68-1.65-1.08-2.9-1.03-1.41,.02-2.51,.62-3.09,1.64"/>
  <path class="cls-3" d="M406.34,139.73l-.36,1.78c-1.86,1.06-3.01,1.84-4.61,3.16-1.56,1.34-2.83,3.62-2.97,5.33-.41,4.82,2.72,4.19,3.14,3.39,.31-.6,.31-1.06,.62-1.87l2.01,.29c.2,1.21-.63,6.64-6.06,5.62-2.7-.52-4.32-3.36-3.62-7.19,.59-3.1,1.78-4.37,3.26-5.66,1.35-1.19,3.53-2.49,5.3-3.52l-5.24-1.28,.41-2.24,8.11,2.19Z"/>
  <path class="cls-3" d="M411.31,145.86c-3.26,1.44-4.76,5.26-3.34,8.57,1.37,3.29,5.16,4.78,8.46,3.35,3.25-1.42,4.71-5.2,3.3-8.47-1.37-3.3-5.2-4.84-8.41-3.45m.93,1.96c1.84-1.07,4.19-.42,5.23,1.37,1.04,1.87,.44,4.19-1.37,5.24-1.76,1.14-4.18,.49-5.22-1.35-1.05-1.83-.45-4.18,1.37-5.27"/>
  <polygon class="cls-3" points="432.62 170.1 433.15 170.71 433.22 170.6 432.8 170.04 432.62 170.1"/>
  <path class="cls-3" d="M434.57,164.27c-1.09,1.56-2.9,2.46-4.3,1.63-1.7-1.13-1.18-2.01,.49-4.53l-1.67-1.17c-1.55,2.23-2.27,3.48-4.03,2.23-1.14-.68-1.86-3.04-.12-3.82l-1.23-.75c1.68-.49,4.25-1.39,5.87-1.56,1.49-.14,3.34,.78,4.63,1.92,1.56,1.36,1.59,4.09,.37,6.05m-3.14-12.87c.55,.38,1.12,1.39,.91,2.02-.62,.07-1.28,.39-1.84,.43-.51,.11-1.07,.29-1.63,.34,.44-.23,.56-.84,.64-1.54l-.95-1.44c.81-.77,2.52-.14,2.86,.17m10.13,4.74c-2.6-1.96-4.78-2.44-6.88-2.4,0-1.72-1.09-3.11-2.84-4.1-1.96-1.08-4.05-.57-5.45,.7-1.37,1.26-1.33,3.72,.51,4.49-.65,.11-1.83,.62-2.66,.86-.7,.21-1.59,.33-2.29,.62l-.42,1.62,1.22,.89c-1.17,.37-3.98,3.82-.54,6.52,1.71,1.39,4.06,1.35,4.26,.16-.25,1.55,.42,3.18,1.73,4.04,1.86,1.18,3.05,.89,4.41,.57l-.06-.06c1.69-.41,3.49-2.07,4.5-4.04,.89-1.71,.96-2.85,.75-4.82-.25-1.89-1.76-3.26-3.15-4.38,2.48,.98,5.86,2.9,6.49,5.63,.68,2.8-.21,5.27-1.95,7.3-1.52,1.76-4.39,2.05-5.99,1l-.02-.02-.27,.17c-1.83,.13-3.4,1.45-3.93,2.51-1.31,2.28-.82,4.83,1.01,6.6,2.68,2.51,6.48,1.92,8.56-1.18l-1.58-1.54c-1.19,1.54-3.44,1.9-4.69,.71-1.33-1.26-1.33-3.45-.19-4.7l2.87,.11,.8,.1c3.84,.24,5.96-1.81,8.13-5.22,2.64-4.18,1.55-9.08-2.33-12.13"/>
  <path class="cls-3" d="M454.94,167.83c3.05-.19,5.46,1.02,7.48,3.56,1.6,2.1,2.45,4.6,1.97,7.02-.36,2.12-1.79,4.28-3.59,5.73-3.52,2.89-8.24,2.93-11.51-1.07-1.26-1.4-2.33-2.98-2.67-4.66-.31-1.56-.19-3.1,1.12-4.29,1.45-1.41,2.72-.68,3.93,.79l4.17,5.15c2.69-2.19,2.84-5.43,.83-8.24-1.5-2.01-4.07-4.37-6.03-3.03-.82,.63-.77,1.41-.18,2.7-1.84-.89-3.16-.76-5.05,.68-4.54,3.47-3.65,9.06,.38,13.93,4.32,5.32,11.35,4.72,16.25,.67,2.48-2.09,4.21-5.04,4.59-8.11,.42-3.02-.45-6.02-2.56-8.62-2.8-3.37-6.8-5.07-10.58-4.05l1.45,1.84Zm.62,9.3l-3.06-3.97,1.22-.87,.06-1.28c1.04,.68,2.48,3.03,2.44,4.42-.03,.81-.13,1.03-.66,1.7"/>
  <path class="cls-3" d="M276.63,228.06c-.07,.71-.21,1.27-.56,1.47-.29,.22-.7,.31-1.26,.27-.54,0-.98-.21-1.21-.44-.33-.33-.45-.82-.36-1.58l.11-1.55,3.4,.2-.11,1.62Zm-7.65-.32c-.01,.84-.01,1.45,.08,1.83l.53,1.05,.84,.94c.42,.29,.87,.55,1.53,.76,.58,.13,1.31,.29,2.08,.31,1.07,.09,1.97-.03,2.77-.31,.71-.29,1.23-.72,1.54-1.25,.91,1.01,2.18,1.55,3.73,1.65,1.6,.11,2.92-.27,3.77-1.04,.68-.61,1.1-1.58,1.18-2.94l.44-5.5-18.06-1.05-.44,5.54Zm14.12,.4c-.03,.51-.12,.9-.24,1.08l-.57,.52-.94,.15-1.12-.43c-.26-.26-.37-.71-.35-1.31l.1-1.45,3.17,.19-.06,1.26Z"/>
  <path class="cls-3" d="M267.9,238.42l2.36,.47v3.87l-2.36,.43v3.86l18.07-4.13v-4.01l-18.06-4.33-.02,3.85Zm6.08,3.62v-2.44l6.59,1.24-6.59,1.2Z"/>
  <polygon class="cls-3" points="268.38 249.92 286.35 248.23 286.69 251.87 277.42 256.85 287.03 255.89 287.42 259.67 269.36 261.35 269.06 257.63 278.1 252.78 268.71 253.65 268.38 249.92"/>
  <polygon class="cls-3" points="270.72 265.33 288.26 261.02 289.18 264.64 283.42 266.08 290.02 268.07 291.11 272.54 283.46 269.95 273.63 277.32 272.53 272.8 278.84 268.28 277.1 267.61 271.62 269 270.72 265.33"/>
  <path class="cls-3" d="M283.78,294.28c1.26,.46,2.57,.54,4.09,.29,1.47-.28,3.07-.79,4.65-1.6,1.67-.88,3.02-1.82,4.07-2.94,1.09-1.1,1.72-2.28,1.91-3.48,.22-1.24,.06-2.38-.43-3.4-.25-.56-.64-1.03-1.07-1.45-.44-.4-1.01-.71-1.53-.99-.63-.22-1.27-.41-2.15-.41-.9-.11-1.87,0-2.98,.26-1.04,.27-2.25,.7-3.5,1.35-2.55,1.31-4.41,2.88-5.44,4.64-1.04,1.81-1.15,3.53-.34,5.29,.63,1.19,1.55,2,2.71,2.44m1.52-6.48c.63-.87,1.73-1.68,3.24-2.44,.96-.5,1.95-.83,2.7-.97,.8-.17,1.42-.17,1.91,.02,.53,.15,.82,.44,1.04,.81l.06,1.07-.5,1.12c-.29,.3-.68,.68-1.24,1.12-.48,.37-1.11,.75-1.86,1.09-1.01,.47-1.92,.82-2.73,1.02-.8,.14-1.43,.14-1.86-.06l-1.03-.85c-.3-.56-.17-1.21,.26-1.93"/>
  <polygon class="cls-3" points="286.07 300.3 301.28 290.38 306.24 298.1 302.48 300.52 299.56 296.03 297.14 297.63 299.46 301.23 295.83 303.66 293.51 299.97 288.16 303.55 286.07 300.3"/>
  <path class="cls-3" d="M313.59,315.66l-2.64-2.47c.57-.72,.9-1.41,.98-1.99,.08-.64-.06-1.15-.45-1.5-.53-.49-1.22-.54-2.05-.28-.94,.3-1.93,1.14-3.23,2.5-.9,.9-1.4,1.68-1.73,2.28-.33,.6-.47,1.15-.47,1.6l.6,1.18c.39,.47,.95,.61,1.51,.47,.63-.14,1.3-.57,1.99-1.22l2.73,2.53c-.84,.77-1.55,1.36-2.3,1.74-.61,.48-1.39,.73-2.32,.99-.9,.21-1.67,.31-2.55,.08-.75-.16-1.41-.52-2.1-1.12-.63-.66-1.08-1.37-1.39-2.22-.27-.79-.37-1.67-.21-2.6,.18-.91,.42-1.78,.93-2.74,.61-1.23,1.45-2.5,2.6-3.7,.99-1.04,2-1.92,3.02-2.6,1.07-.72,2-1.17,2.97-1.42,.94-.24,1.78-.31,2.55-.19,.95,.19,1.79,.56,2.5,1.23,.57,.62,1.01,1.33,1.34,2.12,.25,.81,.3,1.66,.17,2.55-.17,.86-.5,1.77-1,2.65-.33,.64-.81,1.33-1.44,2.09"/>
  <polygon class="cls-3" points="308.3 325.73 319.52 311.4 327.06 317.4 324.34 320.78 319.82 317.11 318.22 319.1 322.12 322.23 319.52 325.52 315.69 322.35 313.92 324.63 318.71 328.45 315.96 331.85 308.3 325.73"/>
  <polygon class="cls-3" points="327.44 317.63 331.13 319.86 329.66 326.19 334.55 321.89 338.22 324.16 328.58 331.75 325.12 337.53 321.86 335.5 325.23 329.77 327.44 317.63"/>
  <polygon class="cls-3" points="332.33 341.03 338.8 324.01 342.43 325.4 337.58 338 342.51 339.91 340.85 344.42 332.33 341.03"/>
  <path class="cls-3" d="M353.17,346.83c1.16-.68,2.1-1.68,2.88-2.93,.77-1.32,1.4-2.87,1.77-4.68,.51-1.76,.63-3.43,.45-5.02-.16-1.46-.62-2.76-1.38-3.68-.8-.96-1.73-1.6-2.85-1.9-.59-.11-1.16-.16-1.79-.09-.58,.09-1.16,.25-1.73,.56-.58,.24-1.13,.68-1.76,1.38-.58,.62-1.14,1.45-1.65,2.47-.52,.98-.94,2.14-1.26,3.54-.73,2.79-.73,5.22-.03,7.22,.66,1.97,1.95,3.17,3.75,3.58,1.27,.33,2.52,.15,3.61-.45m-3.86-5.33c-.24-1.08-.17-2.43,.22-4.09,.29-1.11,.56-2.05,1-2.69,.39-.73,.78-1.24,1.27-1.51l1.31-.23,.85,.67,.47,1.16c.07,.39,.11,.93,.04,1.56-.04,.69-.15,1.37-.35,2.19-.28,1.1-.62,2.02-1.01,2.71-.39,.77-.8,1.21-1.25,1.47l-1.29,.21c-.64-.16-1.04-.66-1.26-1.44"/>
  <polygon class="cls-3" points="359.37 348.97 361.18 330.78 364.75 331.11 367.85 341.23 368.8 331.48 372.48 331.85 370.7 350.06 367.03 349.67 363.99 339.79 363.09 349.32 359.37 348.97"/>
  <path class="cls-3" d="M396.16,337.33h-.11c0,1.08-.69,1.91-1.51,1.91s-1.5-.84-1.5-1.91c0-1.13,.71-2,1.5-2,.82,0,1.51,.87,1.51,2h.22c0-1.21-.75-2.21-1.73-2.22-.96,0-1.72,1.01-1.72,2.22,0,1.16,.76,2.12,1.72,2.13,.98,0,1.73-.96,1.73-2.13h-.11Z"/>
  <path class="cls-3" d="M392.2,351.02c.96,.94,2.09,1.85,3.17,2.57-2.66,1.54-5.15,.68-3.17-2.57m7.5-3.38c-.47,1.78-1.26,3.21-2.19,4.25-1.12-.61-2.43-1.54-3.66-2.82,1.77-1.56,3.96-1.85,5.85-1.43m2.78,1.35c.85,.72,1.19,1.67,.77,2.44-.5,.87-1.51,1.37-2.79,1.28,.82-1.07,1.5-2.26,2.02-3.73m-7.55-9.67c-.9,.16-1.77-.58-2-1.68-.21-1.15,.35-2.17,1.19-2.35,.91-.17,1.83,.62,1.99,1.71,.28,1.09-.26,2.14-1.18,2.32m.39-10.23c4.44,.34,8.23-1.23,10.91,18.42l2.85-.24s-.96-23.41-14.48-21.23c-13.51,2.15-9.15,16.91-6.27,20.72,.52,.67,1.17,1.49,1.94,2.32-3.64,6.82,2.37,10.08,5.95,7.62,.64-.44,1.34-.96,2.02-1.58,2.55,1,5.02,.87,7.08-1.46,1.77-2.11,.91-5.3-2.05-7.62,.18-1.21,0-2.61-.1-4.08-.44-7.06-5.52-10.67-9.2-9.84l-.39,.06c-2.29,.47-3.67,3.12-3.09,5.95,.52,2.83,2.83,4.77,5.06,4.32,1.89-.38,3.13-2.6,3.15-4.87,.84,.9,2.36,3.12,1.98,7.04-2.7-.5-6.63,.41-8.78,2.37-.66-.84-1.37-1.82-2.01-2.87-5.68-8.8,1.06-15.33,5.44-15.01"/>
  <path class="cls-3" d="M413.6,337.65c.4-.25,1.19,.19,1.7,1.07,.5,.8,.63,1.75,.18,1.99-.43,.25-1.16-.15-1.71-1.01-.53-.86-.63-1.78-.18-2.04m13.05-1.9c-.59-8.28-7.31-9.51-7.31-9.51l-.08,3.19c1.49,0,2.66,1.15,3.94,4.02,1.33,2.85-.31,7.95-2.79,1.13-2.52-6.95-9.5-6.15-10.6-2.07-.87,3.23,.34,5.75,1.37,7.19l.57,1.21c1.46,2.32,3.88,3.44,5.48,2.5,1.54-.96,1.58-3.71,.19-5.99-1.34-2.18-3.54-3.29-5.05-2.69-.63-2.27,2.97-3.67,4.62-1.07,1.13,1.9,2.45,7.09,5.89,7.31,4.02,.26,3.75-5.2,3.75-5.2"/>
  <path class="cls-3" d="M452.37,309.27c.31-.35,1.38,.02,2.39,1.03,.93,.87,1.47,1.88,1.13,2.32-.36,.35-1.43-.08-2.38-.99-.99-.88-1.5-2-1.13-2.36m-4.96,6.72c.7-.71,1.93-.63,2.87,.25,.93,.85,1.14,2.16,.54,2.82-.71,.73-2.01,.6-2.89-.19-.93-.9-1.17-2.18-.53-2.88m12.78-11.65c-3.52-3.26-8.16-3.99-10.37-1.55-.84,.9-1.19,2.11-1.13,3.43h-.1c-1.69,.26-3.22,.9-4.41,2.2-2.81,3.11-2.22,8.23,1.33,11.53,.69,.63,1.45,1.15,2.25,1.56l.1,.08c1.85,.99,3.96,.86,5.12-.49,1.52-1.62,1-4.54-1.1-6.56-2.01-1.81-4.58-2.19-6.19-.98h-.14c.02-1.09,.43-2.08,1.16-2.84,.6-.72,1.45-1.18,2.39-1.32,.36,1.32,1.28,2.78,2.73,4.08,2.51,2.46,5.68,3.22,6.98,1.81,1.26-1.4,.2-4.48-2.35-6.9-1.55-1.39-3.22-2.27-4.63-2.4l.06-.12,.39-.82c1.1-1.24,4.11-.34,6.62,2.08,1.63,1.45,2.65,3.17,2.95,4.5l1.7-1.83c-.5-1.88-1.59-3.81-3.34-5.46"/>
  <path class="cls-3" d="M430.73,317.1c.84-.65,.86-2.08,.04-3.22-.82-1.15-2.18-1.54-3.09-.91-.82,.64-.84,2.1-.04,3.28,.81,1.09,2.22,1.47,3.09,.85"/>
  <path class="cls-3" d="M435.91,330.22l-1.76,1.7,1.93,2.52,10.31-7.22-8.65-12.48-2.14,1.64,6.8,9.53-2.97,2.15-.18,.22c.17-1.12-.19-2.71-1-3.81-1.34-1.88-3.66-2.59-5.05-1.52l-.58,.63c-.54-.16-1.07-.33-1.07-.33l1.32-1.2-1.81-2.57-6.85,4.99,8.57,12.25,2.15-1.54-6.51-9.51,.66-.63,4.26,6.1,1.57-1.25,.68-.62c-2.1-2.48-1.34-4.35,.16-3.24,1.52,1.08,.56,3.81,.56,3.81l-.41,.38Z"/>
  <path class="cls-3" d="M466.99,298.73c-1.49,2.15-2.5,1.37-3.16,.62l2.34-3.59s2.29,.83,.82,2.97m-4.55-3.39l-2.51-1.69,.79-1.16,2.51,1.67-.79,1.19Zm8.33-6.3c-4.33-2.48-6.08,2.71-6.08,2.71l-2.69-1.49,1.46-2.48-2.73-1.54-4.88,8.32,5.11,3.07c-2.07,4.09,5.03,7.54,8.38,3.09,3.79-5.08-1.83-7.4-1.83-7.4,.19-.29,.96-2.68,2.42-1.86,1.44,.77-.29,1.83-.29,1.83l2.14,2.18c2.03-1.01,3.29-3.96-1-6.43"/>
  <path class="cls-3" d="M474.3,273.55c.05-.49,.92-.77,1.88-.67,.95,.11,1.72,.6,1.7,1.08-.09,.51-.95,.88-1.88,.73-1-.06-1.77-.6-1.69-1.14m4.77-2.26l2.9,.64,2.62-9.79-14.6-3.67-.72,2.75,11.36,2.91-1.02,3.18c-.93-.62-3.39-1.47-3.39-1.47-7.08-2.29-10.38,3.15-8.61,7.44,.82,1.99,3.91,3.73,8.06,4.16,2.81,.26,4.88-.96,5.16-2.88,.2-1.97-1.52-3.86-4.36-4.12-2.58-.24-4.1,1.19-4.65,2.93-2.22-.93-2.28-5.01,1.41-5.2,4.5-.17,5.85,3.12,5.85,3.12"/>
  <path class="cls-3" d="M466.44,245.26c-1.45-.04-2.6,.8-2.6,1.92-.06,1.04,1.04,1.97,2.46,1.97,1.41,.1,2.56-.77,2.59-1.83,.03-1.12-1.07-2.03-2.45-2.06"/>
  <path class="cls-3" d="M478.98,248.79c1.78-.51,3.28,1.95,3.28,1.95l.1,.61,.19,2.36h3.18l.74-12.57-15.07-.88-.04,2.74,11.62,.44-.13,3.74v.26c-.66-.81-2.15-1.5-3.54-1.59-2.34-.07-4.26,1.34-4.33,3.11l.12,.85-.9,.61-.1-1.72-3.2-.21-.3,8.52,14.83,.8,.15-2.65-11.41-.75-.16-.93,7.45,.36-.04-1.96-.1-.9c-3.16,.06-4.17-1.66-2.36-2.22"/>
  <path class="cls-3" d="M480.82,235.85l.02-4.29s2.43-.53,2.3,2.03c-.16,2.56-1.44,2.48-2.32,2.26m-6.39-2.75l.05-1.42,2.97,.04,.06,1.51-3.08-.12Zm6.27-4.33c-.03-.33-.63-2.79,1-2.89,1.63-.08,.72,1.7,.72,1.7l3.02,.72c1.14-1.95,.68-5.18-4.33-4.91-4.95,.2-3.58,5.52-3.58,5.52l-3.14,.24-.05-2.89-3.07,.17,.07,2.42c-2.25,.07-4.22-.2-4.44-1.54-.24-1.53,1.39-2.39,3.71-3.08,2.32-.67,14.9-2.92,14.9-2.92l-.36-2.56c-17.34,2.66-21.79,3.92-21.72,9.02,.02,4.37,6.26,3.94,8.04,3.82l.03,4.42,5.94-.08c.44,4.59,8.18,3.66,8.69-1.92,.54-6.38-5.43-5.24-5.43-5.24"/>
  <path class="cls-3" d="M395.58,256.07s.69,.38,1.56,.39c.82,.01,1.86-.4,2.48-1.73l-.27-.13-.26,.16s.93,1.5,2.83,1.51c.46,0,.98-.1,1.54-.31l-.22-.57-1.32,.27c-.78,0-1.35-.31-1.74-.62l-.58-.61-.53,.03c-.56,1.14-1.28,1.37-1.94,1.39-.69,0-1.26-.32-1.27-.31l-.29,.53Z"/>
  <path class="cls-3" d="M357.41,216.82l.58,.64,.56,1.26-.56,.81,.15,.26-.14-.27-.24,.06-.68-.63c-.21-.42-.34-1-.34-1.54l.24-1.08,.67-.39,.87,.26c1.53,.79,2.13,1.58,2.87,2.24,.73,.68,1.62,1.16,3.43,1.16l.81-.03,.22-.49s-1.05-1.33-1.82-2.89l-.27,.13-.19,.24s2.33,1.85,6.38,1.85l1.18-.05,.05-.59-.2-.08c-.43-.2-1.44-.8-2.42-2.45l-.26,.15-.04,.3s1.72,.27,3.58,.27c1.59-.01,3.28-.17,4.18-1.03l-.43-.43c-.6,.62-2.22,.86-3.76,.85-1.8,0-3.49-.26-3.49-.26l-.31,.45c1.39,2.36,2.93,2.8,2.99,2.81l.08-.29-.03-.3-1.13,.04c-1.93,0-3.44-.43-4.46-.86-1.02-.44-1.54-.86-1.54-.85l-.46,.37c.81,1.63,1.88,2.99,1.89,3l.24-.19-.02-.3-.77,.02c-1.72-.01-2.34-.39-3.02-1-.68-.61-1.38-1.5-2.99-2.33l-1.16-.33c-.54,0-.96,.29-1.19,.69-.24,.4-.33,.89-.33,1.39,.03,1.23,.48,2.69,1.63,2.78l.51-.13h.01c.59-.34,.87-.85,.86-1.35-.03-1.24-1.34-2.33-1.35-2.36l-.4,.45Z"/>
  <path class="cls-3" d="M370.61,220.63l.84,.43c.47,.31,1.03,.82,1.39,1.56l.56-.05s.36-1.26,.36-2.66c0-1.05-.2-2.21-.98-2.99l-.45,.4s2.8,3.65,5.25,4.25l.14-.59c-1.02-.22-2.28-1.23-3.25-2.19-.98-.96-1.67-1.84-1.67-1.84l-.24,.19-.21,.21c.6,.59,.8,1.59,.8,2.57,0,1.3-.35,2.49-.34,2.49l.29,.08,.27-.13c-.86-1.73-2.55-2.28-2.58-2.29l-.19,.57Z"/>
  <rect class="cls-3" x="361.05" y="233.6" width=".61" height="2.94"/>
  <path class="cls-3" d="M361.06,233.67s.76,3.41,2.98,4.35l.11-.28-.12,.27,.59,.17,.33-.13,.11-.31c-.02-.42-.32-.89-.59-1.59-.28-.68-.56-1.49-.55-2.29l.37-1.47-.52-.3c-.34,.58-.46,1.18-.46,1.77,0,.93,.3,1.81,.59,2.52,.3,.69,.58,1.3,.56,1.36h.15l-.11-.1-.04,.1h.15l-.11-.1,.12,.11v-.17l-.12,.06,.12,.11v-.17l-.34-.12h-.01c-.89-.35-1.56-1.32-2-2.23-.44-.91-.63-1.71-.63-1.71l-.59,.14Z"/>
  <path class="cls-3" d="M362.44,228.16s.6,.77,1.23,1.67c.63,.89,1.31,1.95,1.41,2.37l.57,.03s.63-1.59,.63-3.47c0-.58-.06-1.2-.23-1.81l-.29,.08-.22,.2s1.37,1.55,3.27,1.7h.02l.66,.06,.04,.02,.04-.07-.06,.04,.02,.03,.04-.07-.06,.04,.15-.11h-.19l.04,.11,.15-.11h-.08l-.1-.07-.02,.07h.11l-.1-.07-.13,.11,.15,.26h.3s.02-3.39-1.25-5.64l-.26,.15-.24,.19s2.95,3.74,4.14,5.58l.54-.05s.56-1.41,.56-3.07c0-.82-.14-1.72-.57-2.54l-.53,.28c.37,.7,.5,1.5,.5,2.26,0,1.52-.52,2.84-.52,2.85l.29,.11,.25-.16c-1.23-1.89-4.17-5.62-4.17-5.63l-.5,.34c.57,1,.87,2.35,1.02,3.43,.15,1.09,.15,1.9,.15,1.91l.45,.26,.18-.13,.24-.43-.4-.45-.84-.09v.3l.02-.3c-.79-.06-1.51-.43-2.04-.8-.52-.36-.82-.71-.83-.71l-.52,.28c.15,.54,.21,1.1,.21,1.65,0,1.74-.59,3.24-.59,3.24l.28,.11,.29-.08c-.35-1.21-2.74-4.22-2.75-4.25l-.48,.37Z"/>
  <path class="cls-3" d="M393.43,257.22c0,.06,.55,1.66,2.87,1.65l1.09-.1h.03s.03-.02,.03-.02c0,0,1.35-.54,2.31-1.08l-.15-.26-.29,.08s.39,1.35,1.88,1.36c.41,0,.9-.11,1.47-.36h.01s1.09-.56,2.59-1.65l-.36-.49c-1.45,1.07-2.5,1.59-2.5,1.59l.13,.27-.12-.27c-.51,.23-.91,.31-1.23,.31-.54,0-.84-.22-1.05-.46l-.2-.32-.06-.13-.11-.37-.33,.19c-.9,.51-2.24,1.04-2.24,1.04l.11,.28-.05-.3-.99,.09c-1.02,0-1.57-.33-1.9-.63l-.33-.42-.07-.16-.58,.17Z"/>
  <path class="cls-2" d="M394.66,255.27s2.42,1.33,3.62-1.21c0,0,1.34,2.15,4.01,.95"/>
  <path class="cls-3" d="M394.52,255.53s.69,.38,1.55,.39c.83,.01,1.86-.4,2.48-1.73l-.27-.13-.26,.16s.9,1.44,2.71,1.45c.5,0,1.07-.12,1.68-.39l-.24-.55c-.56,.25-1.03,.34-1.44,.34-.73,0-1.28-.29-1.65-.59l-.55-.58-.53,.03c-.56,1.14-1.28,1.37-1.93,1.39-.68,0-1.26-.32-1.26-.31l-.29,.53Z"/>
  <path class="cls-2" d="M386.36,258.07s0,5.48,7.5,11.25c0,0,1.34,9.9-2.13,8.15-3.48-1.73-7.25-.79-8.43,6.17,0,0,10.17-1.21,12.71-.29,0,0,.39-1.73,4.02,.29,3.88,2,7.62-3.48,3.49-5.23,0,0-1.09-6.55,1.71-7.88,0,0,2.29,.79,3.37-4.03,0,0,.26,.53-2.96,.13,0,0-2.12-.13-2.81,1.21,0,0,1.75-7.49,4.69-9.77,2.81-2.26,6.03-10.04,6.15-12.97l-27.3,12.97Z"/>
  <path class="cls-3" d="M386.36,258.07h-.3c0,.07,.04,5.66,7.62,11.49l.19-.24-.3,.04s.25,1.87,.25,3.82c0,1.08-.08,2.19-.31,2.99-.24,.82-.58,1.22-1.02,1.21l-.62-.17c-1-.49-2.02-.79-3.02-.79-2.66,0-4.99,2.07-5.84,7.17l.34,.35s5.32-.63,9.19-.63c1.47,0,2.76,.1,3.38,.33l.4-.21,.02-.04c.07-.12,.21-.4,.87-.41,.53,0,1.37,.21,2.69,.94,.64,.33,1.27,.47,1.86,.47,2.15-.02,3.86-1.8,3.88-3.61,0-1.04-.63-2.07-1.99-2.64l-.12,.28,.3-.05s-.2-1.23-.2-2.73c-.02-1.93,.39-4.23,1.74-4.83l-.13-.27-.1,.29,.47,.06c.84,.02,2.49-.62,3.29-4.31l-.29-.07-.29,.11,.21-.08h-.23l.02,.08,.21-.08h-.03l-.15-.13-.05,.13h.2l-.15-.13,.07,.06-.06-.08v.02s.06,.06,.06,.06l-.06-.08s-.2,.1-.79,.09c-.42,0-1.03-.03-1.89-.14h-.2c-.53,0-2.22,.05-2.93,1.37l.27,.13,.3,.07s.43-1.85,1.23-3.99c.79-2.14,1.98-4.55,3.35-5.61,2.94-2.41,6.11-10.12,6.26-13.2l-.43-.29-27.3,12.97-.17,.27h.3l.13,.27,27.29-12.98-.13-.27-.3-.02c-.08,2.79-3.34,10.63-6.02,12.75-3.1,2.44-4.78,9.92-4.8,9.94l.56,.21c.44-.93,1.91-1.07,2.38-1.05h.14l.02-.3-.04,.3c.88,.11,1.51,.15,1.97,.15l.98-.12,.35-.43-.03-.14-.58,.04c-.82,3.56-2.16,3.82-2.7,3.84l-.27-.03h-.23c-1.79,.9-2.08,3.42-2.1,5.39,0,1.55,.21,2.82,.21,2.83l.19,.23c1.18,.51,1.6,1.28,1.6,2.08,0,1.42-1.46,2.99-3.27,3-.49,0-1.03-.12-1.58-.4-1.35-.75-2.29-1.01-2.97-1.01-1.18-.01-1.48,.87-1.48,.93l.3,.07,.11-.29c-.79-.28-2.08-.36-3.59-.36-3.94,0-9.25,.63-9.26,.63l.04,.3,.29,.05c.87-4.98,2.96-6.66,5.25-6.67,.89,0,1.82,.26,2.76,.72l.88,.24c.87-.01,1.36-.77,1.6-1.65,.26-.9,.34-2.05,.34-3.16,0-2-.26-3.89-.26-3.9l-.11-.2c-3.71-2.86-5.55-5.62-6.47-7.67-.45-1.02-.68-1.87-.79-2.45-.12-.58-.12-.89-.12-.89h-.3l.13,.27-.13-.27Z"/>
  <path class="cls-2" d="M386.36,258.07s0,5.48,7.5,11.25c0,0,1.34,9.9-2.13,8.15-3.48-1.73-7.25-.79-8.43,6.17,0,0,10.17-1.21,12.71-.29,0,0,.39-1.73,4.02,.29,3.88,2,7.62-3.48,3.49-5.23,0,0-1.09-6.55,1.71-7.88,0,0,2.29,.79,3.37-4.03,0,0,.26,.53-2.96,.13,0,0-2.12-.13-2.81,1.21,0,0,1.75-7.49,4.69-9.77,2.81-2.26,6.03-10.04,6.15-12.97"/>
  <path class="cls-3" d="M401.75,284.38c-.62,0-1.26-.15-1.86-.47-1.96-1.09-2.85-1.01-3.21-.85l-.38,.36-.39,.21c-2.43-.89-12.47,.3-12.57,.31l-.34-.35c.59-3.48,1.84-5.72,3.73-6.68,1.47-.75,3.24-.66,5.13,.29l1.04,.04c1.27-.91,.94-5.8,.68-7.77-7.43-5.77-7.51-11.17-7.51-11.4h.6s.11,5.4,7.38,11l.11,.2c.1,.73,.91,7.16-.91,8.46-.44,.33-1,.34-1.65,0-1.18-.58-2.94-1.12-4.59-.29-1.6,.82-2.75,2.84-3.34,5.85,1.87-.21,9.56-1.01,12.17-.31l.57-.47c.81-.37,2.09-.08,3.77,.86,1.12,.58,2.38,.51,3.41-.19,.94-.64,1.51-1.69,1.42-2.63-.08-.81-.64-1.46-1.61-1.88l-.18-.23c-.04-.27-1.09-6.79,1.88-8.2h.23s.47,.13,1.03-.2c.54-.31,1.26-1.08,1.79-3-.47,.06-1.23,.04-2.55-.12-.01,.02-1.92-.09-2.51,1.04l-.56-.21c.07-.31,1.82-7.61,4.8-9.93,2.76-2.23,5.91-9.9,6.03-12.75l.61,.02c-.12,3.03-3.33,10.84-6.26,13.2-2.16,1.68-3.7,6.37-4.3,8.51,.96-.57,2.18-.52,2.24-.49,2.28,.27,2.66,.07,2.7,.05l-.04,.05,.55-.07v.35c-.48,2.02-1.23,3.32-2.24,3.88-.59,.33-1.12,.29-1.36,.25-2.23,1.21-1.61,6.38-1.48,7.35,1.08,.5,1.73,1.32,1.82,2.31,.12,1.17-.54,2.42-1.68,3.19-.67,.46-1.42,.68-2.18,.68"/>
  <path class="cls-2" d="M391.08,282.83s.39-2.67,2.94-3.48"/>
  <path class="cls-3" d="M391.38,282.88l-.59-.1c.01-.11,.45-2.87,3.15-3.73l.18,.58c-2.33,.75-2.72,3.15-2.74,3.25"/>
  <path class="cls-2" d="M386.86,283.36s.65-3.2,3.07-4.01"/>
  <path class="cls-3" d="M387.16,283.42l-.58-.12c.02-.13,.71-3.38,3.26-4.23l.19,.57c-2.22,.75-2.87,3.76-2.87,3.79"/>
  <path class="cls-2" d="M333.38,246.31c6.29-3.22,11.38,5.75,11.38,5.75l7.07,10.3s-1.19,13.78-11.5-.52c0,0-1.07,4.8-6.14-.41l-.81-15.11Z"/>
  <path class="cls-3" d="M340.58,261.65c3.35,4.64,6.12,6.81,8.04,6.3,2.26-.62,2.83-4.8,2.9-5.51l-7-10.22c-.07-.11-4.9-8.52-10.82-5.74l.79,14.8c1.46,1.49,2.73,2.26,3.7,2.26l.45-.06c1.07-.31,1.41-1.72,1.41-1.73l.54-.11Zm7.46,6.98c-2.02,0-4.58-2.06-7.6-6.16-.24,.56-.73,1.34-1.63,1.6-1.31,.33-2.9-.45-4.84-2.44l-.07-.19-.81-15.12,.17-.28c6.45-3.31,11.72,5.76,11.78,5.87l7.05,10.28,.04,.2c-.01,.22-.49,5.36-3.35,6.15l-.74,.1Z"/>
  <path class="cls-2" d="M326.15,254.47s-3.08,1.07,.39,2.42c2.69,1.05,11.24-1.35,8.04-3.89l-8.43,1.47Z"/>
  <path class="cls-3" d="M326.15,254.47l-.1-.29-.68,.33c-.34,.21-.76,.52-.78,1.05,.03,.62,.58,1.09,1.85,1.6,.5,.2,1.13,.27,1.85,.27,1.46,0,3.23-.34,4.67-.9,1.42-.57,2.6-1.3,2.64-2.39,0-.5-.29-.97-.82-1.39l-.24-.06-8.43,1.47h-.05s.1,.3,.1,.3l.05,.3,8.43-1.47-.05-.3-.19,.24,.59,.92c.04,.54-.87,1.31-2.25,1.83-1.36,.53-3.09,.86-4.45,.86-.66,0-1.24-.08-1.63-.24-1.24-.47-1.49-.9-1.46-1.03l.49-.54,.57-.27-.1-.29,.05,.3-.05-.3Z"/>
  <path class="cls-2" d="M326.02,251.78s-2.82,1.47,.67,2.94c3.08,1.08,11.1-2,7.63-4.16l-8.29,1.21Z"/>
  <path class="cls-3" d="M326.02,251.78l-.14-.27s-1.18,.54-1.24,1.61c.01,.68,.57,1.31,1.93,1.88h.02c.48,.17,1.05,.25,1.67,.25,1.47,0,3.23-.41,4.64-1.03,1.4-.63,2.53-1.41,2.57-2.48,0-.54-.35-1.03-.99-1.42l-.2-.04-8.3,1.21-.1,.03,.14,.27,.04,.3,8.29-1.21-.04-.3-.16,.26c.55,.35,.71,.66,.71,.91,.04,.53-.86,1.35-2.21,1.92-1.33,.59-3.04,.98-4.4,.98-.57,0-1.07-.07-1.46-.21l-.1,.29,.12-.27c-1.31-.56-1.57-1.05-1.56-1.33l.44-.73,.48-.34-.14-.27,.04,.3-.04-.3Z"/>
  <path class="cls-2" d="M325.76,248.98s-3.08,1.07,.27,2.8c2.81,1.47,11.51-.8,8.16-3.2l-8.43,.39Z"/>
  <path class="cls-3" d="M325.76,248.98l-.1-.29s-1.41,.39-1.5,1.52c.02,.63,.52,1.21,1.73,1.84,.69,.36,1.63,.5,2.66,.5,1.45,0,3.07-.29,4.36-.77,1.27-.49,2.29-1.1,2.34-2.09,0-.49-.32-.95-.88-1.35l-.19-.06-8.43,.39-.08,.02,.1,.29v.3s8.45-.39,8.45-.39v-.3s-.19,.24-.19,.24l.63,.86c.04,.43-.72,1.09-1.94,1.53-1.21,.45-2.78,.73-4.15,.73-.98,0-1.84-.14-2.38-.43-1.16-.59-1.42-1.08-1.4-1.3l.51-.66,.58-.29-.1-.29v.3s0-.3,0-.3Z"/>
  <path class="cls-2" d="M325.76,248.98s-3.08,1.07,.27,2.8c2.81,1.47,11.51-.8,8.16-3.2l.13,1.99c3.47,2.16-4.55,5.24-7.63,4.16-3.48-1.47-.67-2.94-.67-2.94l-.27-2.8Z"/>
  <path class="cls-3" d="M334.54,249.36l.04,.59-.04-.59Zm-8.51,2.76l-.79,1.02c.02,.43,.57,.89,1.55,1.3,2.15,.77,7.22-.76,7.99-2.37,.07-.15,.27-.57-.38-1.07-1.85,1.33-6.33,2.04-8.38,1.12m2.19,3.12c-.61,0-1.17-.07-1.63-.24-1.29-.54-1.92-1.14-1.95-1.84-.02-.61,.43-1.09,.8-1.37-.9-.54-1.32-1.09-1.28-1.66,.07-.93,1.35-1.4,1.49-1.45l.2,.57-1.09,.92c-.02,.22,.15,.69,1.39,1.33,1.85,.98,6.22,.19,7.86-.96l-.13-1.95,.48-.26c1.16,.84,.92,1.63,.67,2.03l-.17,.23c.79,.67,.64,1.36,.47,1.74-.73,1.53-4.44,2.9-7.12,2.9"/>
  <path class="cls-2" d="M325.76,245.77s-3.34,1.47,0,3.21c3.21,1.88,11.92-.13,8.16-2.82l-8.16-.39Z"/>
  <path class="cls-3" d="M325.76,245.77l-.12-.27s-1.59,.61-1.67,1.88c0,.66,.5,1.28,1.65,1.87l.14-.27-.15,.26c.95,.55,2.27,.77,3.63,.77s2.81-.24,3.92-.65c1.09-.41,1.95-.99,1.99-1.89,0-.56-.37-1.07-1.05-1.56l-.16-.06-8.17-.39-.13,.03,.12,.27-.02,.3,8.16,.39,.02-.3-.17,.25c.61,.44,.8,.81,.79,1.07,.03,.4-.55,.95-1.59,1.32-1.02,.38-2.39,.61-3.71,.61-1.29,0-2.53-.22-3.33-.69h-.01c-1.09-.57-1.33-1.05-1.32-1.35l.62-.92,.68-.41-.12-.27-.02,.3,.02-.3Z"/>
  <path class="cls-2" d="M325.76,245.57s-3.35,1.68,0,3.41c3.21,1.88,11.92-.13,8.16-2.82l-8.15-.59Z"/>
  <path class="cls-3" d="M329.26,250c-1.41,0-2.76-.24-3.65-.76-1.09-.56-1.64-1.21-1.64-1.92,.01-1.18,1.58-1.99,1.65-2.02l.27,.54c-.36,.19-1.32,.81-1.32,1.49,0,.58,.72,1.08,1.32,1.39,2.27,1.33,7.59,.56,8.52-.86,.1-.16,.43-.66-.67-1.45l.35-.48c1.36,.97,1.11,1.83,.83,2.26-.74,1.14-3.28,1.82-5.66,1.82"/>
  <path class="cls-2" d="M336.17,240.94c-1.04-.41-1.67,.53-1.98,1.46v.31c0,.31,0,.63,.52,.63l-.52,.21-.31,.1c-.52,.21-.94,.31-1.35,.31-.63,.11-1.36,.21-1.98,.21-.94,0-1.77-.1-2.39-.31-.94-.21-1.45-.52-1.45-.52h-.31v-.11c-1.04-.41-1.56-.94-1.56-.94l.94,.31,.52-.31v-1.76l-.31-.52c-1.25-1.56-3.65-.41-4.17,1.14-.31,1.14,.31,2.39,1.15,3.12,.72,.52,1.45,.94,2.29,1.24l.31,.11h.21l.94,.31c2.29,.62,4.89,.94,7.18,.21h.1l.21-.11h.11l.42-.1c1.04-.31,1.98-.94,2.6-1.77,.84-1.14,.21-2.8-1.14-3.22"/>
  <path class="cls-3" d="M325.66,245.31l.11,.21,.83,.11-.94-.31Zm10.62-4.68l-1.25,.11c-.41,.1-.73,.52-.83,1.03l-.31,.63v.21l.21,.73h-.21l-.31,.1c-2.92,.83-5.2,.31-6.14-.1l-.73-.21-.31-.21-.31-.1,.21-.21v-.62l-.52,.31h-.52l-.21-.2-.21,.2-.21,.21,.31,.31c.31,.21,.83,.52,1.56,.83,.1,0,.73,.41,1.97,.62,.63,.11,1.25,.21,1.98,.21,1.04,0,2.19-.21,3.54-.52l1.14-.31-.21-.62h-.41v-.52c.1-.62,.52-1.04,.83-1.24h.73c.62,.11,1.04,.62,1.25,1.14,.1,.62,0,1.14-.31,1.56-.52,.73-1.25,1.24-2.39,1.67-.52,.21-1.04,.41-1.56,.41h-.21c-2.19,.52-4.37,.1-6.03-.41h-.21l-.94-.31c-.94-.31-1.77-.73-2.5-1.35-.73-.52-1.35-1.67-1.04-2.7,.21-.83,1.04-1.45,1.87-1.66h.42c.41,0,.94,.1,1.35,.62,.31,.31,.52,.94,.52,1.45v-1.77l-.11-.1c-.52-.63-1.35-.94-2.29-.84-1.04,.31-2.08,1.14-2.39,2.07-.41,1.36,.42,2.71,1.25,3.44,.73,.52,1.56,.94,2.29,1.14l.31,.1,.41,.21,.83,.21c1.25,.42,2.81,.73,4.58,.73,.83,0,1.77-.1,2.7-.31h.21l.11-.11,.41-.11,.31-.1,.21-.11c1.04-.41,1.77-1.04,2.39-1.77,.41-.62,.52-1.35,.31-2.08-.21-.83-.83-1.35-1.56-1.66"/>
  <path class="cls-2" d="M334.58,246.57s.95,0,1.6-.4c.54-.54-.66,2-1.47,1.87-.93-.12-.39-1.46-.13-1.46"/>
  <path class="cls-3" d="M334.66,246.87l-.15,.68,.25,.18,.25-.1,.76-.95-1.11,.19Zm.12,1.47h-.12c-.5-.07-.81-.46-.77-1.01l.7-1.05s.86-.01,1.45-.36l.44-.07,.07,.62c-.12,.32-.91,1.88-1.77,1.88"/>
  <path class="cls-2" d="M334.58,248.85s.81,0,1.49-.54c.52-.4-.68,2.14-1.49,2-.8-.15-.26-1.46,0-1.46"/>
  <path class="cls-3" d="M334.66,249.15l-.18,.72,.16,.15,.25-.12,.76-.99-.99,.24Zm0,1.47h-.12c-.47-.1-.72-.47-.67-1l.72-1.07s.71-.02,1.3-.48l.48-.04-.02,.84s-.79,1.75-1.69,1.75"/>
  <path class="cls-2" d="M334.58,250.86s.81,.13,1.49-.4c.52-.41-.68,2.13-1.49,2-.8-.12-.26-1.46,0-1.59"/>
  <path class="cls-3" d="M334.69,251.17l-.21,.86,.15,.12h.02l.24-.12,.77-1.02-.97,.16Zm-.04,1.59h-.12s-.66-.68-.66-.68c-.08-.51,.23-1.32,.57-1.49l.19-.03h0s.69,.1,1.24-.34l.48-.04-.02,.81c-.22,.51-.94,1.77-1.7,1.77"/>
  <path class="cls-2" d="M334.58,253.26s.81,0,1.49-.39c.52-.53-.68,2.14-1.49,1.87-.8,0-.26-1.47,0-1.47"/>
  <path class="cls-3" d="M334.67,253.56l-.18,.82,.11,.06,.09,.02,.18-.07,.8-1.01-.99,.19Zm.04,1.5l-.17-.02-.53-.27-.15-.53,.73-1.27s.7-.01,1.3-.35l.47-.06c.21,.15,.18,.43-.12,1.02-.18,.38-.82,1.48-1.53,1.48"/>
  <path class="cls-2" d="M331.91,256.48c-.26,1.46,.67,2.53,.67,2.53,0,0,3.49-6.15,4.16,.4,0,0-2.01,3.21-5.47,1.61,0,0,2.93,.13,1.05,4.55,0,0-.12,3.21,1.88,1.74,0,0-1.61,.27-1.34-1.35,0,0,1.74-6.02,4.42-.66,1.6,3.48-3.76,4.95-5.89,3.89,0,0,.81,2.39,2.14,2.39,0,0-.66,.95-2,.55,0,0,0,1.74-1.2,2.26-1.07-.52-1.07-2.14-1.07-2.14-1.33,.29-2.14-.52-2.14-.52,1.33,0,2.14-2.54,2.14-2.54-2.14,1.19-7.49-.13-5.88-3.62,2.4-5.48,4.41,.54,4.41,.54,.26,1.47-1.47,1.33-1.47,1.33,2.13,1.34,1.87-1.73,1.87-1.73-2.01-4.41,1.07-4.69,1.07-4.69-3.48,1.74-5.62-1.49-5.62-1.49,.54-6.54,4.16-.38,4.16-.38,0,0,1.07,0,1.07-2.01,0,0,2.28-.26,3.07-.66"/>
  <path class="cls-3" d="M329.18,271.97l.36,.29s.01,1.3,.77,1.8c.87-.51,.9-1.91,.9-1.92l.38-.29c.59,.18,1.02,.07,1.29-.1-1.13-.54-1.76-2.36-1.79-2.46l.42-.36c1.24,.62,3.81,.32,5.09-.91,.73-.71,.86-1.58,.4-2.57-.67-1.35-1.33-2.05-1.92-2.05h-.06c-.93,.09-1.68,2-1.88,2.66l.15,.77,.85,.19,.23,.55c-.6,.43-1.13,.53-1.55,.33-.86-.46-.82-2.14-.81-2.33l.02-.11c.66-1.56,.79-2.76,.35-3.46l-.35-.37-.9-.33,.14-.57,1.01,.34c2.41,.61,3.84-1.28,4.14-1.72-.23-2.15-.74-2.58-1.03-2.64h-.11c-.75-.01-1.88,1.47-2.43,2.45l-.49,.05s-.81-.95-.79-2.27c-.78,.24-1.92,.4-2.43,.47-.1,2.02-1.31,2.05-1.36,2.05l-.26-.15c-.63-1.07-1.78-2.48-2.51-2.48h-.11c-.28,.08-.79,.5-.97,2.62,.31,.43,1.82,2.28,4.26,1.67l1.03-.39,.17,.57-.94,.38-.42,.46c-.43,.74-.28,1.93,.42,3.46l.02,.1c.02,.18,.13,1.74-.7,2.25-.42,.26-.96,.18-1.64-.24l.19-.56,1.02-.3,.13-.68c-.23-.68-1.06-2.55-2-2.59h-.03c-.58,0-1.21,.73-1.82,2.13-.46,1.01-.33,1.86,.4,2.54,1.3,1.19,3.86,1.36,5.07,.68l.44,.35c-.08,.24-.66,1.97-1.72,2.56,.33,.14,.78,.25,1.37,.13m1.25,2.7h-.26c-.9-.45-1.14-1.51-1.21-2.07-1.28,.13-2.04-.62-2.08-.66l.21-.52c.68,0,1.27-.95,1.6-1.7-1.59,.46-3.9,.04-5.08-1.05-.92-.85-1.11-2-.54-3.23,.73-1.68,1.51-2.49,2.37-2.49h.06c.82,.04,1.47,.84,1.91,1.61-.33-1.14-.3-2.06,.1-2.74h-.28c-2.41,.01-3.85-2.1-3.86-2.13l-.05-.2c.17-2,.64-3.07,1.45-3.26l.23-.03c1.2,0,2.51,1.93,2.92,2.59,.22-.1,.62-.45,.62-1.67l.26-.3c.62-.07,2.36-.31,2.97-.62l.44,.33c-.15,.82,.13,1.51,.35,1.91,.5-.79,1.64-2.36,2.73-2.36l.22,.03c.83,.17,1.33,1.24,1.53,3.27l-.05,.19s-1.41,2.19-3.84,2.19h-.2c.49,.88,.39,2.18-.33,3.87v.08c.22-.71,1.01-2.82,2.35-2.93h.12c.84,0,1.65,.77,2.45,2.38,.57,1.23,.38,2.39-.52,3.27-1.28,1.22-3.61,1.6-5.1,1.24,.33,.7,.92,1.59,1.59,1.59l.25,.48c-.24,.35-.95,.91-1.97,.74-.07,.59-.35,1.73-1.35,2.17"/>
  <path class="cls-2" d="M338.98,200.37c-12.7,3.54-12.38,33.5-12.07,41.19,.1,.73,.1,1.35,.1,1.56l.41,.21-.72-.21v.21s.52,.31,1.45,.52c.63,.21,1.46,.31,2.39,.31,.62,0,1.35-.11,1.98-.21,.41,0,.83-.1,1.35-.31v-.31l-.31,.11c-1.46-27.56,3.95-40.26,5.41-43.07"/>
  <path class="cls-3" d="M333.88,242.4v.94l-.31,.1c-2.91,.84-5.2,.31-6.14-.1l-.73-.21-.31-.21v.41l.11,.31c.1,0,.73,.41,1.97,.62,.62,.1,1.25,.21,1.98,.21,1.04,0,2.18-.21,3.54-.52l.21-.31v-1.87l-.31,.62Z"/>
  <path class="cls-4" d="M334.2,241.77l-.31,.62v.94l-.31,.11c-1.46-27.56,3.95-40.26,5.41-43.07-12.7,3.54-12.38,33.5-12.07,41.19,.11,.73,.11,1.35,.11,1.56l.41,.21-.73-.21-.31-.21-.1-.31v-2.7c-.31-9.99,.1-37.66,13.21-40.36l.31,.52c-.11,.1-6.97,11.65-5.62,41.71"/>
  <path class="cls-2" d="M355.07,237.21s-26.9,11.64,2.27,30.1c0,0,10.44,3.75,23.81-3.62,0,0,9.76-5.48,12.98-8.02,3.21-2.68,7.9-2.94,11.38,2.54,3.34,5.48,6.28,5.48,6.28,5.48,0,0,1.22,.95,.93,3.89,0,0-.66,1.2,.29,9.1,0,0-2.02,2.66-3.48-.68-1.47-3.2-9.66,1.76-8.18,7.64,0,0,6.71-1.21,12.85,.27,0,0,.81,0,1.07-2.28,0,0,0,1.33,4.56,1.2,0,0,4.68,.13,1.61-5.62,0,0-.14-2.69,.65-3.21,.94-.67-1.05-2.42-1.47-2.56-.25-.13,6.3,.69,6.3-4.42-1.47,.41-3.49,.56-4.95-.25-2.82-1.47-2.29-5.89-1.2-8.3,.53-1.47,1.07-2.94,1.73-4.28,.93-1.86,3.74-10.3,3.48-12.84-.13-2.42-1.07-4.81-2.8-6.56-.67-.94-.67-.79-.15-1.87,.29-.52,.4-1.19,.68-1.86,.67-2.83,.4-6.16-1.32-8.57-2.16-2.94-6.31-4.16-9.79-4.56-3.74-.53-7.49-.12-11.11,1.35-2.8,1.2-8.16-.95-7.88-3.34,0,0-2.29-1.21-2.83,3.21,0,0-2.67-4.69,.53-6.02,0,0-4.53-3.35-6.28,2.27,0,0,.94-10.18,6.83-3.6,0,0,1.05,1.19,.27,1.86-.82,.8,3.73,.27,2-5.21,0,0,2.94,3.73,1.35,5.21,0,0,4.14-.8,2.8-4.95,0,0,2.29,3.47-1.48,5.09,0,0,5.49,3.21,5.49-3.35,0,0,1.07,5.63,9.37,5.63,0,0-1.6-1.21-2.42-3.49,0,0,9.91,9.1,13.39,1.75,0,0,1.22-5.22-4.28-3.36,0,0-2.41,1.08-1.21,3.63,0,0-16.19-10.71-23.41-9.65-3.48-.12-7.37,.67-10.03,2.94-1.47,1.07-2.55,2.55-3.09,4.15-.4,.94-.54,1.88-.67,2.82l.13,2.54s-4.67,3.87,.4,7.63c0,0,2.28-5.48,4.14-4.14,0,0,10.58,7.63,23.55,2.27,2.28-.93,5.63-1.21,7.77,.13,1.74,1.21,2.67,4.01,2.41,6.16-.53,2.8-4.4,.15-5.76-.26-2.27-.67-4.27-.67-6.55-.54-3.89,.25-7.63,1.47-11.38,2.42-1.46,.4-17.27,4.27-25.41,1.06l-14.18,5.09Z"/>
  <path class="cls-4" d="M398.58,211.63l-.2,.39c-.36,.61-.89,1.04-1.38,1.34,.82-.42,1.35-.98,1.56-1.67l.02-.06Zm8.8,71.25c2.1,0,4.5,.16,6.82,.72,.19-.07,.6-.53,.77-2.01l.6,.04s.26,.91,3.66,.91h.58s.02,0,.02,0c.16,0,1.5-.03,2.07-.96,.54-.86,.28-2.32-.73-4.22l-.04-.12c-.02-.48-.1-2.89,.79-3.48l.11-.29c-.1-.66-1.27-1.65-1.5-1.73l-.21-.36,.54-.24c3.63,0,5.56-1.26,5.74-3.71-1.02,.23-3.11,.54-4.78-.38-2.92-1.52-2.55-6-1.34-8.69,.52-1.44,1.07-2.94,1.74-4.3,.88-1.76,3.71-10.19,3.45-12.68-.14-2.49-1.11-4.75-2.73-6.38l-.17-.22c-.56-.79-.57-.9-.11-1.82l.08-.17,.38-.98,.3-.86c.72-3.03,.24-6.14-1.3-8.28-2.3-3.15-6.99-4.14-9.57-4.45-3.79-.54-7.47-.08-10.96,1.34-2.09,.89-5.22,.06-6.92-1.21-.9-.67-1.38-1.45-1.39-2.22l-.91,.09c-.46,.25-1.05,.96-1.3,2.96l-.57,.11c-.06-.11-1.59-2.83-.91-4.83,.2-.58,.57-1.04,1.1-1.37-.64-.36-1.91-.92-3.1-.53-1.03,.33-1.79,1.31-2.28,2.92l-.59-.12c.02-.21,.5-5.17,2.94-5.98,1.23-.43,2.73,.33,4.41,2.2,.07,.08,.68,.79,.64,1.51l-.15,.48,.84-.54c.53-.54,1.28-1.83,.43-4.51l.53-.28c.11,.14,2.36,3.02,1.79,4.85,.55-.23,1.28-.66,1.7-1.4,.46-.77,.5-1.76,.12-2.91l.54-.26c.04,.07,1.09,1.7,.61,3.33-.24,.79-.79,1.43-1.65,1.92,.75,.33,2.16,.79,3.19,.2,.87-.5,1.32-1.7,1.32-3.55l.59-.06c.04,.21,1.07,5.03,8.27,5.37-.56-.59-1.39-1.61-1.91-3.07l.49-.33c.06,.06,5.79,5.23,9.87,4.46,1.32-.26,2.34-1.14,3.04-2.61,0,0,.43-2-.56-2.89-.64-.58-1.77-.6-3.34-.06,0,0-.89,.42-1.22,1.31-.21,.56-.14,1.19,.19,1.9l-.44,.39c-.15-.11-14.71-9.67-22.16-9.67l-1.04,.07h-.68c-3.72-.01-7.02,1.03-9.19,2.88-1.42,1.03-2.48,2.45-3,4.01-.38,.89-.52,1.73-.66,2.76l.07,.73c.15,1.54,.15,1.81-.03,1.98-.03,.03-1.93,1.63-1.86,3.67,.03,1.16,.68,2.25,1.94,3.25,.47-1.01,1.79-3.7,3.25-4.12l1.19,.21c.1,.08,10.59,7.47,23.25,2.23,2.28-.93,5.77-1.27,8.05,.16,1.93,1.34,2.8,4.32,2.55,6.44-.13,.66-.42,1.11-.88,1.35-1.13,.56-2.79-.24-4.14-.87l-1.12-.48c-2.12-.62-4.03-.66-6.45-.52-2.99,.2-5.96,.99-8.82,1.75-.84,.22-1.67,.45-2.51,.66-.15,.04-16.87,4.39-25.49,1.09l-14.06,5.04c-.35,.15-10.5,4.73-11.1,12.38-.43,5.51,4.09,11.29,13.42,17.19,.04,.01,10.42,3.58,23.5-3.63,.1-.06,9.78-5.49,12.94-7.99,1.8-1.5,3.93-2.14,5.9-1.83,2.24,.35,4.29,1.89,5.92,4.45,3.19,5.23,5.99,5.33,6.02,5.34l.19,.06c.05,.04,1.35,1.08,1.05,4.16l-.03,.12s-.58,1.4,.32,8.92l-.06,.22s-.86,1.13-1.93,1.13h-.19c-.75-.11-1.39-.72-1.88-1.87-.55-1.21-2.11-.8-2.75-.58-2.52,.89-5.64,4.13-4.92,7.76,.77-.12,3.01-.41,5.8-.41m6.81,1.32c-6.09-1.45-12.74-.29-12.79-.26l-.35-.23c-1.03-4.13,2.38-7.73,5.25-8.74,1.66-.59,2.97-.25,3.5,.9,.41,.94,.89,1.44,1.41,1.5h.11c.61,0,1.18-.56,1.37-.78-.82-6.96-.4-8.73-.26-9.09,.21-2.3-.55-3.29-.77-3.52-.62-.07-3.37-.63-6.42-5.61-1.53-2.42-3.43-3.86-5.49-4.19-1.82-.27-3.77,.33-5.43,1.72-3.21,2.53-12.63,7.82-13.03,8.05-13.33,7.35-23.96,3.68-24.06,3.64-9.59-6.06-14.2-12.03-13.75-17.78,.63-8.11,11.01-12.7,11.46-12.89h.02s14.18-5.09,14.18-5.09h.21c8.38,3.27,25.07-1.03,25.22-1.07,.84-.21,1.67-.43,2.5-.66,2.9-.77,5.89-1.57,8.94-1.77,2.47-.15,4.46-.1,6.66,.54l1.21,.52c1.17,.55,2.76,1.31,3.61,.88l.56-.9c.23-1.88-.57-4.66-2.28-5.85-2.1-1.32-5.35-.98-7.49-.11-12.97,5.36-23.73-2.23-23.84-2.3l-.67-.12c-1.21,.35-2.59,3.1-3.02,4.14l-.46,.12c-1.61-1.19-2.45-2.52-2.48-3.96-.07-2.12,1.62-3.75,1.99-4.08l-.1-1.53-.07-.84c.11-.88,.26-1.93,.69-2.93,.56-1.66,1.69-3.19,3.19-4.27,2.27-1.93,5.7-3.02,9.52-3.02h.7s1.12-.07,1.12-.07c6.71,0,18.62,7.32,21.72,9.3-.12-.54-.09-1.05,.08-1.53,.43-1.13,1.53-1.63,1.57-1.65,1.83-.63,3.16-.55,3.97,.17,1.26,1.14,.75,3.43,.72,3.53-.81,1.72-1.98,2.71-3.5,3.01-3.34,.67-7.46-2.22-9.35-3.73,.78,1.4,1.75,2.15,1.77,2.16l-.18,.53c-5.89,0-8.26-2.83-9.16-4.55-.2,1.32-.71,2.23-1.53,2.7-1.78,1.01-4.22-.4-4.32-.47l.03-.52c-.6,.31-1.11,.41-1.15,.41l-.26-.52c.79-.73,.2-2.27-.49-3.48,.27,2.22-.63,3.54-1.7,4.08l-1.27,.02,.12-.61,.2-.37-.48-1.07c-1.51-1.69-2.8-2.39-3.77-2.03-1.07,.35-1.75,1.88-2.13,3.29,.47-.62,1.03-1.04,1.69-1.26,1.96-.67,3.98,.82,4.06,.89l-.07,.52c-.63,.26-1.04,.68-1.24,1.27-.39,1.12,.07,2.57,.46,3.48,.28-1.27,.77-2.1,1.46-2.47,.82-.43,1.6-.03,1.64-.02l.16,.31c-.07,.62,.33,1.29,1.13,1.89,1.58,1.19,4.51,1.92,6.34,1.14,3.58-1.46,7.38-1.91,11.26-1.37,3.27,.38,7.66,1.51,9.98,4.69,1.64,2.28,2.16,5.57,1.39,8.82l-.3,.86-.41,1.08-.08,.16q-.32,.66,.07,1.19l.14,.19c1.69,1.69,2.73,4.1,2.87,6.72,.27,2.61-2.59,11.14-3.52,12.99-.64,1.32-1.19,2.82-1.72,4.26-1.12,2.5-1.52,6.59,1.06,7.93,1.76,.95,4.06,.41,4.73,.23l.38,.29c0,2.06-1,4.48-5.7,4.69,.49,.45,1.02,1.09,1.11,1.65l-.36,.88c-.44,.3-.56,1.84-.52,2.88,1.1,2.1,1.33,3.7,.67,4.77-.79,1.28-2.51,1.26-2.6,1.24h-.6c-1.83,.01-3.08-.24-3.75-.74-.36,1.72-1.1,1.82-1.27,1.82"/>
  <path class="cls-2" d="M404.68,283.23s.39-2.82,2.81-3.61"/>
  <path class="cls-3" d="M404.98,283.27l-.59-.08c.01-.12,.45-3.01,3.02-3.85l.19,.57c-2.22,.72-2.61,3.34-2.61,3.36"/>
  <path class="cls-2" d="M408.63,283.23s.4-2.82,2.93-3.61"/>
  <path class="cls-3" d="M408.93,283.27l-.6-.08c.02-.12,.45-3.01,3.14-3.85l.19,.58c-2.32,.72-2.72,3.34-2.73,3.36"/>
  <path class="cls-2" d="M356.26,236.93s2.14-1.2,2.27-2.67c.14-1.19-.81-3.89-2.94-1.19-1.19,1.47-.8,2-.8,2,0,0-2.96,.26-1.47-4.14,0,0-2.01,2,.14,4.68,0,0-3.62,.4-3.48-4.42,0,0,.26,3.35-2.94,3.88,0,0,.93-2.29,.13-4.14,0,0-2.01,4.14-5.24,2.67,0,0,2.7-.82,2.03-2.94,0,0-3.36-6.16,.8-4.68,0,0,4.67,2,7.48-.68,0,0,.4,1.6,.29,2.68,0,0,5.08-2.55,6.82,1.21,0,0,.67-5.08-4.55-5.89,0,0-.25-2.14-.93-2.82,0,0,.8,2.29,.26,2.94-.67,.81-5.22-2-6.42-4.13,0,0,1.05,2.8,.26,3.48,0,0-.14-2.01-3.48-4.02-3.21-1.87-3.62-6.57,.94-6.16,3.48,.27,.93,2.82,.93,2.82,0,0,5.63-2.55,8.57-2.01,2.94,.53,.67-3.61-2-2.42,0,0,5.75-4.81,6.42,.94,0,0,4.81,.26,2.68-4.28,0,0,2.94-1.21,5.21,2.94,0,0,2.41,.13,1.47-4.02,0,0,3.34,.14,4.16,4.14,0,0,4.13,.68,6.28-1.87,0,0,3.35,3.75-2.8,6.29,0,0,2.8,2.8,1.47,5.76,0,0-.82,.39-1.21-.13,0,0-.8,4.42,.67,5.61,0,0-1.34,.54-1.87-.25,0,0,1.59,1.33,2.26,5.88,0,0,.4,1.47,2.02,1.19,0,0-2.02,.41-2.95,.28,0,0,3.62-.28,5.21,.8,1.35,1.07,.67,.53,1.76,1.35,.53,.26-2.29,.26-2.81,0,0,0,1.59,.13,4,2.41,2.29,2.14-.48,1.91,.18,1.91,0,0-4.18-.19-7.13-2.19l1.17,.82c1.01,.94,1.86,2.9,3.45,2.9l-.56,.15-1.49,.25c-1.45,.16-2.96,.08-4.33-.42-.69-.25-1.27-.64-1.86-1.05l-.39,1.76c-.21,.54-1.58,3.8-2.39,2.43,0,0-1.21-1.21-2.15-4.29,0,0-.13,2.29-1.6,3.76,0,0-1.21,.52-1.21-4.3,0,0-3.34,4.16-2.66,5.63,0,0-2.15-2.8-.81-6.44,0,0-2.42,1.88-3.61,4.96,0,0-1.47-2.15,1.19-4.82,0,0-2.94,.8-3.73,2.82-.68,1.87-.94-4.68,1.73-5.22l-2.41,.26Z"/>
  <path class="cls-3" d="M369.38,239.97l.29,.21c.9,2.97,2.06,4.17,2.07,4.18l.26,.24h0c.42-.03,1.18-1.36,1.64-2.57l.08-.19c.39-.91,.41-1.18,.38-1.25l-.06-.4,.44-.05h0c.6,.41,1.14,.77,1.79,1.01,1.19,.44,2.6,.56,4.2,.41l.9-.13c-.65-.38-1.17-1.04-1.64-1.65l-.84-.99-.79-.57-.35-.23-.08-.42,.42-.08h0l.03,.02c2.84,1.91,6.9,2.11,6.94,2.11h0l.42-.19s.1-.34-.82-1.21c-1.68-1.58-2.95-2.1-3.52-2.26l-.43-.1-.15-.35,.29-.22h.02l.57,.13,1.57,.07-.17-.13c-.21-.16-.22-.16-1.12-.87-.89-.6-2.5-.74-3.65-.76-.52,.06-1.04,.09-1.42,.03l-.26-.31,.27-.29c.06,0,.59-.05,1.39-.03h0l-.72-1.07c-.5-3.43-1.55-4.99-1.97-5.51l-.25-.28,.04-.39h.39s.22,.21,.22,.21l.9,.09c-1.07-1.57-.49-5.06-.41-5.49l.23-.24,.32,.11,.73,.08c1.12-2.69-1.43-5.29-1.45-5.31l-.08-.27,.17-.22c2.02-.84,3.19-1.88,3.46-3.08,.25-1.05-.25-2.01-.56-2.45-2.28,2.32-6.13,1.72-6.31,1.69l-.24-.24c-.61-2.96-2.62-3.68-3.48-3.85,.28,1.51,.13,2.62-.44,3.31-.59,.7-1.39,.68-1.42,.65l-.25-.15c-1.7-3.11-3.76-3.07-4.53-2.89,.56,1.32,.58,2.38,.06,3.15-.9,1.35-3.08,1.26-3.17,1.23l-.28-.26c-.16-1.33-.61-2.14-1.33-2.43-1.09-.44-2.59,.31-3.57,.95,.77,.07,1.44,.49,1.86,.94,.56,.61,.76,1.33,.49,1.81-.19,.31-.61,.65-1.63,.47-2.83-.56-8.33,1.96-8.38,1.98l-.38-.1,.04-.39c.26-.26,.98-1.14,.77-1.67-.13-.34-.66-.56-1.52-.63-1.61-.13-2.64,.36-2.96,1.37-.43,1.37,.56,3.26,2.2,4.22,2.04,1.22,2.93,2.46,3.33,3.28-.02-.7-.27-1.68-.54-2.37l.16-.38,.39,.13c1.01,1.79,4.44,4,5.68,4.12l.25-.03c.29-.35-.02-1.78-.32-2.65l.13-.35,.36,.04c.61,.62,.9,2.16,.98,2.77,5.22,.95,4.59,6.13,4.58,6.19l-.25,.26-.32-.17c-.39-.83-.98-1.4-1.78-1.67-1.96-.68-4.6,.6-4.63,.61l-.31-.02-.12-.29c.08-.66-.07-1.55-.17-2.09-2.92,2.27-7.22,.48-7.41,.4-.52-.18-1.21-.34-1.49-.02-.56,.66,.36,2.97,1.07,4.28,.22,.67,.17,1.26-.1,1.79-.32,.6-.88,1-1.35,1.26,2.47,.5,4.05-2.63,4.12-2.78l.27-.17h0l.27,.18c.61,1.42,.29,3.04,.04,3.85,1.8-.55,2.13-2.19,2.18-2.99v-.48s.3-.29,.3-.29h0s.3,.27,.3,.27v.43c.02,1.36,.38,2.38,1.06,3.01l1.52,.69c-1.68-2.61,.23-4.55,.25-4.58l.38-.04,.12,.36c-.51,1.51-.53,2.64-.06,3.24l.88,.49c.02-.39,.21-.98,.94-1.88,.85-1.08,1.64-1.46,2.33-1.18,.88,.36,1.23,1.77,1.14,2.6-.08,.9-.8,1.68-1.44,2.21l1.24-.13h.03l.3,.26-.24,.34c-.57,.12-1.03,.58-1.39,1.37-.47,1.07-.58,2.41-.54,3.15,.98-1.91,3.68-2.67,3.79-2.7l.35,.14-.05,.36c-1.66,1.67-1.62,3.08-1.41,3.84,1.26-2.73,3.34-4.36,3.42-4.44h.37s.11,.34,.11,.34c-.82,2.23-.27,4.13,.23,5.2,.45-1.82,2.44-4.34,2.73-4.69l.33-.1,.2,.28c0,3.05,.49,3.79,.7,3.96l.08,.04c1.3-1.37,1.44-3.46,1.44-3.48l.27-.29h.03Zm-5.48,5.7l-.24-.12c-.09-.11-1.85-2.45-1.17-5.67-.8,.8-2,2.23-2.74,4.12l-.24,.19-.29-.12s-1.26-1.89,.44-4.29c-.87,.41-2.03,1.13-2.46,2.23l-.5,.52h-.07c-.22-.04-.45-.22-.47-1.26-.02-1.3,.31-3.13,1.21-4.15l-1.1,.11h-.03l-.29-.21,.14-.35s2.01-1.14,2.13-2.43c.07-.64-.22-1.76-.77-1.99-.4-.15-.99,.2-1.63,1-.98,1.21-.78,1.65-.78,1.65l.02,.3-.26,.16s-.85,.07-1.49-.47l.36,.51,.04,.31-.24,.18c-.07,0-1.47,.15-2.57-.86-.48-.45-.83-1.05-1.04-1.78-.39,.91-1.2,1.84-2.8,2.1l-.29-.11-.04-.3s.68-1.73,.33-3.3c-.75,1.14-2.63,3.39-5.28,2.22l-.17-.3,.21-.27s1.27-.4,1.74-1.3l.08-1.27c-.19-.33-1.99-3.73-.98-4.91,.4-.47,1.13-.53,2.17-.15,.06,.02,4.53,1.9,7.17-.62l.29-.07,.21,.22c.02,.06,.31,1.24,.31,2.28,.89-.36,2.94-1.05,4.64-.43,.63,.22,1.15,.58,1.56,1.08-.1-1.45-.79-4.02-4.31-4.56l-.25-.22-.13,.24-.77,.25c-1.19-.1-3.63-1.6-5.15-3.15,.17,.87,.24,1.86-.27,2.29l-.31,.06-.18-.26s-.2-1.89-3.34-3.79c-1.9-1.1-2.98-3.27-2.46-4.92,.42-1.31,1.71-2,3.58-1.79,1.13,.09,1.82,.43,2.04,1.02l-.22,1.39c1.79-.71,5.46-1.97,7.71-1.6l.98-.16-.41-1.11c-.53-.58-1.46-1.01-2.51-.57l-.37-.11,.06-.4c.12-.11,3.15-2.6,5.22-1.78,.89,.35,1.45,1.25,1.65,2.66,.55-.02,1.83-.15,2.39-.97,.43-.64,.35-1.62-.24-2.89v-.24s.16-.16,.16-.16c.03-.02,3.12-1.24,5.5,2.9l.79-.44c.48-.58,.56-1.69,.22-3.2l.06-.26,.25-.11s3.47,.19,4.4,4.18c.84,.07,4.05,.29,5.79-1.79l.23-.1h0l.22,.1c.06,.06,1.31,1.49,.91,3.26-.31,1.33-1.46,2.46-3.43,3.34,.71,.85,2.38,3.22,1.23,5.78l-.14,.15-1.12,.12c-.19,1.41-.33,4.07,.63,4.85l.11,.27-.19,.23s-.51,.21-1.04,.21c.53,.88,1.23,2.46,1.62,5.1,.03,.08,.39,1.21,1.67,.94l.34,.25v.15c.79,.12,1.57,.35,2.14,.73,.9,.71,.91,.72,1.12,.87l.65,.48,.11,.1,.04,.36c-.11,.2-.58,.27-1.13,.28,.62,.37,1.36,.91,2.2,1.7,.34,.31,1.35,1.26,.9,1.98l-1.14,.44c-.63-.04-2.73-.25-4.85-1.07l.2,.25c.67,.86,1.36,1.76,2.34,1.76l.3,.3-.3,.31-.28,.06-.21,.07c-.48,.11-.99,.19-1.52,.25-1.7,.18-3.19,.03-4.47-.44-.52-.19-.96-.44-1.4-.72l-.39,1.09-.07,.16c-.18,.47-1.14,2.86-2.16,2.95l-.79-.48s-.93-.94-1.79-3.24c-.21,.82-.64,1.91-1.49,2.76l-.1,.07-.63-.1c-.58-.38-.91-1.59-.99-3.61-1.17,1.58-2.48,3.8-2.1,4.63l-.12,.38-.16,.05Z"/>
  <path class="cls-2" d="M343.02,225.97s.95-1.87-1.08-2.94c-2.01-.94,6.82,1.87,12.85,.26,0,0,4.02,.53,4.28,3.75l.26,1.86s-1.87-2.93-6.7-1.07l-.4-2.54s-.79,1.74-3.59,1.47c-2.82-.26-4.3-1.47-5.63-.8"/>
  <path class="cls-3" d="M343.02,225.97l.27,.13s.25-.49,.25-1.14c.01-.7-.33-1.61-1.46-2.2h-.02s-.19-.11-.19-.11h-.01s-.18,.2-.18,.2h.26l-.08-.2-.18,.2h-.02l.08,.27,.2-.27h-.29l.08,.27-.03-.12v.12s.03,0,.03,0l-.03-.12v.12c.47-.01,4.52,.97,8.62,.97,1.54,0,3.1-.13,4.53-.52l-.07-.29-.04,.3s.96,.12,1.95,.63c.99,.52,1.96,1.36,2.08,2.84v.02l.26,1.86,.3-.04,.25-.16s-1.18-1.82-3.96-1.82c-.87,0-1.91,.18-3.1,.64l.11,.28,.3-.04-.4-2.55-.58-.07-.11,.19c-.27,.36-.98,1.13-2.62,1.14l-.55-.03c-2.16-.2-3.5-.98-4.77-1l-1.03,.24,.14,.27,.27,.13-.27-.13,.14,.27,.75-.17c1-.02,2.45,.78,4.72,1l.61,.03c2.48,0,3.27-1.63,3.29-1.68l-.27-.12-.3,.04,.41,2.54,.4,.24c1.13-.44,2.09-.6,2.88-.6,1.25,0,2.11,.4,2.66,.79l.61,.53,.18,.22,.55-.2-.26-1.86-.3,.04,.3-.02c-.34-3.52-4.55-4.01-4.55-4.02h-.11c-1.36,.37-2.88,.5-4.38,.5-4.07,0-7.92-.96-8.62-.97l-.14,.02-.24,.31,.22,.33,.25,.12,.13-.27-.15,.26c.95,.52,1.13,1.14,1.14,1.67l-.19,.87,.41,.4-.14-.27Z"/>
  <path class="cls-2" d="M356.54,216.07c.63,.58,1.4,1.5,1.13,2.43l-.81,.81-1.16-.55c-.66-1.16-.9-3.63,.98-3.73,.99-.05,1.97,.86,2.65,1.49,1.25,1.17,2.32,2.2,4.12,2.25h.99s-1.07-1.36-1.74-3.1c0,0,2.69,2.27,7.23,1.88,0,0-1.35-.55-2.69-2.69,0,0,5.75,.8,7.36-.81"/>
  <path class="cls-3" d="M356.59,219.64l-1.16-.74c-.51-.9-.73-2.38-.24-3.3,.3-.53,.8-.84,1.47-.87h.1c1.09,0,2.09,.94,2.77,1.56l.07,.07c1.18,1.1,2.19,2.05,3.85,2.1h.4c-.38-.55-1-1.53-1.45-2.69l.11-.35h.37s2.27,1.87,6.03,1.87h.04c-.53-.41-1.26-1.12-1.96-2.26v-.33l.29-.13c1.56,.22,5.87,.5,7.1-.73h.43v.43c-1.37,1.38-5.36,1.14-6.95,.98,1.13,1.58,2.18,2.02,2.18,2.02l.18,.33-.27,.25c-3.15,.23-5.4-.7-6.56-1.36,.59,1.19,1.27,2.05,1.27,2.06l.04,.3-.26,.19-1.02,.02c-1.88-.06-3.02-1.13-4.24-2.27l-.07-.07c-.6-.56-1.5-1.4-2.36-1.4h-.07l-.96,.57c-.39,.71-.19,1.97,.24,2.71l.81,.41,.6-.6c.22-.75-.44-1.57-1.04-2.12l-.02-.43,.43-.02c1.05,.96,1.47,1.91,1.22,2.74-.16,.5-.54,.9-1.03,1.01l-.34,.04Z"/>
  <path class="cls-2" d="M359.48,221.54s3.61,3.22,4.54,3.22c1.07,0-1.2-4.42-1.2-4.42,0,0,1.6,2.54,3.33,2.68,0,0,.41-1.21,0-3.22,0,0,3.1,1.47,3.76,2.28,0,0,.26-1.86-.4-2.69"/>
  <path class="cls-3" d="M364.02,225.06c-1,0-4.12-2.74-4.74-3.29l-.02-.43,.43-.02c1.73,1.54,3.82,3.13,4.33,3.13,.13-.27-.53-2.15-1.47-3.98l.13-.4,.4,.11s1.38,2.17,2.85,2.5c.09-.44,.21-1.43-.07-2.82l.11-.3,.31-.03c.27,.13,2.31,1.12,3.38,1.91,.02-.61-.04-1.43-.39-1.86l.04-.43,.43,.04c.74,.92,.48,2.84,.47,2.92l-.22,.24-.31-.09c-.43-.51-2.1-1.41-3.13-1.93,.24,1.71-.09,2.73-.11,2.78l-.31,.2c-.77-.06-1.5-.53-2.09-1.08,.42,1.04,.73,2.12,.47,2.56l-.48,.26Z"/>
  <path class="cls-2" d="M369.56,219.39s1.59,.41,2.54,2.01c0,0,.94-3.75-.53-5.36,0,0,2.85,4.1,5.11,4.77"/>
  <path class="cls-3" d="M372.1,221.7l-.26-.15c-.87-1.45-2.34-1.86-2.36-1.86l-.21-.38,.36-.22c.06,.02,1.32,.36,2.3,1.55,.16-1,.34-2.85-.32-4.01l-.3-.41,.06-.41,.41,.03,.33,.44c.78,1.04,2.92,3.72,4.65,4.24l.2,.38-.38,.2c-1.36-.41-2.91-1.95-3.96-3.2,.21,1.67-.21,3.47-.25,3.57l-.25,.23h-.05Z"/>
  <path class="cls-2" d="M360.29,232.92s.79,3.49,2.8,4.29c2,.94-1.74-2.82-.26-5.62"/>
  <path class="cls-3" d="M359.99,232.99s.75,3.56,2.98,4.5l.11-.28-.13,.27,.58,.17,.34-.14,.11-.31c-.02-.44-.34-.95-.63-1.69-.3-.72-.59-1.59-.58-2.42l.32-1.36-.53-.28c-.29,.53-.4,1.09-.4,1.64,0,.97,.33,1.9,.63,2.65,.31,.73,.61,1.38,.59,1.46h.14l-.1-.09-.04,.09h.14l-.1-.09,.11,.1v-.16l-.11,.06,.11,.1v-.16l-.33-.12h-.01c-.88-.35-1.56-1.35-1.99-2.3-.44-.94-.62-1.78-.63-1.78l-.59,.13Z"/>
  <path class="cls-2" d="M362.65,231.69s-.31,4.82,6.11,5.9c0,0-2.2-2.53-.99-5.2,0,0,1.33,5.75,5.21,6.01,0,0-.66-4.81-1.74-6.15,0,0,2.01,4.68,5.36,5.09,0,0,.67-2.8-.54-4.68,0,0,.27,2,4.83,2.94"/>
  <path class="cls-3" d="M372.99,238.7h-.02c-3.08-.2-4.61-3.56-5.2-5.27-.35,2.12,1.21,3.95,1.23,3.97l.03,.34-.31,.15c-6.61-1.11-6.37-6.17-6.37-6.22l.3-.28h.02l.28,.32c-.01,.17-.17,4.2,5.13,5.43-.61-.96-1.49-2.87-.57-4.88l.31-.18,.26,.23c.01,.06,1.23,5.15,4.56,5.74-.15-.88-.52-3.07-1.07-4.53-.37-.63-.57-1.1-.6-1.16l.12-.38,.39,.07,.6,1.15c.77,1.3,2.26,3.38,4.28,3.79,.1-.62,.28-2.14-.21-3.46l-.39-.84,.19-.33,.36,.12,.38,.73c.48,.62,1.6,1.53,4.26,2.08l.24,.35-.36,.23c-1.89-.39-3.08-.98-3.83-1.53,.25,1.53-.08,2.96-.1,3.05l-.33,.22c-1.63-.2-2.95-1.33-3.9-2.5,.39,1.58,.61,3.12,.62,3.22l-.08,.25-.22,.09Z"/>
  <path class="cls-3" d="M364.16,231.76h-.06s-.25-.27-.25-.27c-.1-.81-1.82-3.07-2.47-3.86l.04-.43,.43,.04c.2,.25,1.68,2.06,2.31,3.35,.3-.91,.66-2.55,.24-4.16l.11-.33,.34-.02s1.23,.75,2.85,1.69l.89,.51c-.26-1.13-.87-3.53-1.73-4.99l.08-.4,.4,.06c.13,.14,2.59,3.15,3.84,5,.3-.93,.73-2.88-.18-4.53l.11-.41,.43,.12c1.38,2.52,.06,5.51,0,5.64l-.25,.17h-.02l-.26-.14c-.57-.93-1.72-2.45-2.67-3.64,.62,1.76,.96,3.55,.99,3.66l-.11,.29-.33,.03s-.41-.21-1.49-.83c-.94-.55-1.75-1.03-2.27-1.33,.36,2.36-.64,4.51-.69,4.62l-.27,.17Z"/>
  <path class="cls-3" d="M375.52,231.76l-.13-.02c-3.73-1.81-3.9-6.5-3.91-6.7l.29-.31h.01l.3,.29c0,.05,.17,4.27,3.29,6.02,.35-.9,.94-2.64,.76-3.35l.22-.36,.37,.22c.28,1.14-.8,3.73-.93,4.03l-.17,.16-.11,.02Z"/>
  <path class="cls-2" d="M354.54,253.26s-1.08,9.1,2.66,17.27c0,0,.81,9.22-2.66,7.49-3.49-1.74-7.25-.81-8.43,6.16,0,0,10.16-1.07,12.84-.26,0,0,.39-1.62,4.02,.26,3.72,2.01,7.48-3.35,3.47-5.22,0,0-2-2.15,.8-3.48,0,0,3.87-.26,5.22-4.42,0,0-2.14-.53-4.68,.53,0,0-2.15-.13-2.96,1.22,0,0,1.75-7.5,4.56-9.78,2.95-2.25,6.15-10.03,6.29-12.97"/>
  <path class="cls-3" d="M364.66,284.92c-.61,0-1.24-.16-1.83-.48-1.99-1.03-2.88-.93-3.24-.78l-.36,.33-.38,.21c-2.61-.8-12.63,.26-12.72,.27l-.33-.35c.59-3.48,1.86-5.73,3.74-6.68,1.47-.74,3.24-.63,5.13,.31l1.14,.04c1.32-.9,1.24-5.44,1.09-7.19-3.71-8.13-2.67-17.28-2.66-17.37l.6,.07c-.01,.1-1.03,9.12,2.64,17.1l.03,.1c.06,.66,.51,6.52-1.35,7.78-.49,.35-1.08,.35-1.75,0-1.18-.58-2.94-1.13-4.58-.3-1.62,.81-2.76,2.83-3.34,5.85,1.87-.19,9.61-.9,12.31-.28l.53-.44c.79-.38,2.07-.11,3.79,.79,1.07,.6,2.27,.54,3.26-.11,.95-.61,1.54-1.66,1.47-2.62-.05-.82-.59-1.5-1.54-1.94l-.1-.07s-.95-1.05-.73-2.2c.13-.72,.68-1.32,1.63-1.77l.11-.02c.15-.01,3.48-.3,4.84-3.89-.68-.09-2.31-.2-4.17,.58l-.13,.02s-1.98-.11-2.68,1.07l-.55-.22c.07-.31,1.81-7.63,4.67-9.94,2.81-2.16,6.03-9.84,6.17-12.76l.6,.03c-.15,3.09-3.44,10.92-6.41,13.2-2.07,1.69-3.58,6.44-4.17,8.57,.89-.56,2.07-.57,2.33-.56,2.6-1.05,4.72-.53,4.81-.51l.22,.38c-1.3,4.01-4.91,4.56-5.43,4.62-.73,.36-1.15,.81-1.25,1.32-.14,.73,.41,1.45,.56,1.63,1.11,.53,1.76,1.39,1.83,2.42,.08,1.18-.61,2.43-1.76,3.17-.63,.41-1.33,.62-2.04,.62"/>
  <path class="cls-2" d="M349.67,283.67s.39-2.69,2.8-3.49"/>
  <path class="cls-3" d="M349.96,283.72l-.59-.1c.01-.11,.45-2.87,3-3.72l.19,.57c-2.2,.74-2.59,3.22-2.6,3.25"/>
  <path class="cls-2" d="M352.91,283.76s.4-2.68,2.8-3.48"/>
  <path class="cls-3" d="M353.2,283.8l-.6-.1c.02-.11,.47-2.87,3.01-3.72l.2,.57c-2.19,.73-2.6,3.22-2.6,3.25"/>
</svg>